<svg preserveAspectRatio="none" width="100%" height="100%" overflow="visible" style="display: block;" viewBox="0 0 54 54" fill="none" xmlns="http://www.w3.org/2000/svg">
<path id="Vector" fill-rule="evenodd" clip-rule="evenodd" d="M53.3333 26.6667C53.3333 41.3947 41.3947 53.3333 26.6667 53.3333C11.9387 53.3333 0 41.3947 0 26.6667C0 11.9387 11.9387 0 26.6667 0C41.3947 0 53.3333 11.9387 53.3333 26.6667ZM34.6667 18.6667C34.6667 20.7884 33.8238 22.8232 32.3235 24.3235C30.8232 25.8238 28.7884 26.6667 26.6667 26.6667C24.5449 26.6667 22.5101 25.8238 21.0098 24.3235C19.5095 22.8232 18.6667 20.7884 18.6667 18.6667C18.6667 16.5449 19.5095 14.5101 21.0098 13.0098C22.5101 11.5095 24.5449 10.6667 26.6667 10.6667C28.7884 10.6667 30.8232 11.5095 32.3235 13.0098C33.8238 14.5101 34.6667 16.5449 34.6667 18.6667ZM26.6667 49.3333C31.2434 49.3407 35.7141 47.9558 39.4853 45.3627C41.096 44.256 41.784 42.1493 40.8453 40.4347C38.9067 36.88 34.9067 34.6667 26.6667 34.6667C18.4267 34.6667 14.4267 36.88 12.4853 40.4347C11.5493 42.1493 12.2373 44.256 13.848 45.3627C17.6192 47.9558 22.0899 49.3407 26.6667 49.3333Z" fill="var(--fill-0, #1E1E1E)" fill-opacity="0.2"/>
</svg>
