<svg preserveAspectRatio="none" width="100%" height="100%" overflow="visible" style="display: block;" viewBox="0 0 5 12" fill="none" xmlns="http://www.w3.org/2000/svg">
<path id="Vector" d="M2.25 0C1.91848 0 1.60054 0.131696 1.36612 0.366117C1.1317 0.600537 1 0.918479 1 1.25C1 1.58152 1.1317 1.89946 1.36612 2.13388C1.60054 2.3683 1.91848 2.5 2.25 2.5C2.58152 2.5 2.89946 2.3683 3.13388 2.13388C3.3683 1.89946 3.5 1.58152 3.5 1.25C3.5 0.918479 3.3683 0.600537 3.13388 0.366117C2.89946 0.131696 2.58152 0 2.25 0ZM0 9.25C0 8.65326 0.237053 8.08097 0.65901 7.65901C1.08097 7.23705 1.65326 7 2.25 7C2.84674 7 3.41903 7.23705 3.84099 7.65901C4.26295 8.08097 4.5 8.65326 4.5 9.25C4.5 9.84674 4.26295 10.419 3.84099 10.841C3.41903 11.2629 2.84674 11.5 2.25 11.5C1.65326 11.5 1.08097 11.2629 0.65901 10.841C0.237053 10.419 0 9.84674 0 9.25Z" fill="var(--fill-0, #3C77FF)"/>
</svg>
