<svg preserveAspectRatio="none" width="100%" height="100%" overflow="visible" style="display: block;" viewBox="0 0 20 16" fill="none" xmlns="http://www.w3.org/2000/svg">
<path id="Vector" d="M13.5 3.5C13.5 3.95963 13.4095 4.41475 13.2336 4.83939C13.0577 5.26403 12.7999 5.64987 12.4749 5.97487C12.1499 6.29988 11.764 6.55769 11.3394 6.73358C10.9148 6.90947 10.4596 7 10 7C9.54037 7 9.08525 6.90947 8.66061 6.73358C8.23597 6.55769 7.85013 6.29988 7.52513 5.97487C7.20012 5.64987 6.94231 5.26403 6.76642 4.83939C6.59053 4.41475 6.5 3.95963 6.5 3.5C6.5 2.57174 6.86875 1.6815 7.52513 1.02513C8.1815 0.368749 9.07174 0 10 0C10.9283 0 11.8185 0.368749 12.4749 1.02513C13.1313 1.6815 13.5 2.57174 13.5 3.5ZM16 12.5C16 14.433 13.314 16 10 16C6.686 16 4 14.433 4 12.5C4 10.567 6.686 9 10 9C13.314 9 16 10.567 16 12.5ZM5.122 1C5.3 1 5.47267 1.01667 5.64 1.05C5.21998 1.79822 4.99958 2.64195 5 3.5C5 4.368 5.221 5.185 5.61 5.896C5.452 5.926 5.28933 5.941 5.122 5.941C3.708 5.941 2.561 4.835 2.561 3.471C2.561 2.107 3.708 1 5.122 1ZM3.447 14.986C2.88 14.307 2.5 13.474 2.5 12.5C2.5 11.556 2.857 10.744 3.396 10.077C1.49 10.225 0 11.267 0 12.529C0 13.804 1.517 14.854 3.447 14.986ZM15 3.5C15 4.368 14.779 5.185 14.39 5.896C14.5473 5.926 14.71 5.941 14.878 5.941C16.292 5.941 17.438 4.835 17.438 3.471C17.438 2.107 16.293 1 14.879 1C14.701 1 14.5283 1.01667 14.361 1.05C14.768 1.774 15 2.61 15 3.5ZM16.553 14.986C18.483 14.854 20 13.804 20 12.529C20 11.266 18.509 10.225 16.604 10.077C17.144 10.744 17.5 11.556 17.5 12.5C17.5 13.474 17.12 14.307 16.553 14.986Z" fill="var(--fill-0, #FEC855)"/>
</svg>
