<svg preserveAspectRatio="none" width="100%" height="100%" overflow="visible" style="display: block;" viewBox="0 0 16 16" fill="none" xmlns="http://www.w3.org/2000/svg">
<path id="Vector" fill-rule="evenodd" clip-rule="evenodd" d="M6.6208 0.00400009C6.6872 9.16421e-08 6.7576 0 6.8488 0H9.152C9.2424 0 9.3128 9.16421e-08 9.38 0.00400009C9.79566 0.0292678 10.1956 0.171985 10.5334 0.415565C10.8711 0.659144 11.1328 0.99358 11.288 1.38C11.3128 1.4416 11.336 1.508 11.364 1.5944L11.3664 1.6024C11.4336 1.7816 11.5864 1.9856 11.8008 2.1488C11.8248 2.16693 11.8488 2.184 11.8728 2.2C13.5952 2.2024 14.4952 2.2336 15.1144 2.7384C15.2424 2.8424 15.3581 2.95813 15.4616 3.0856C16 3.7472 16 4.7272 16 6.6872C16 7.1848 16 7.4328 15.88 7.6272C15.8564 7.6651 15.8296 7.70096 15.8 7.7344C15.648 7.9056 15.4104 7.9768 14.9344 8.12L11.2 9.24V8.6C11.2 8.17565 11.0314 7.76869 10.7314 7.46863C10.4313 7.16857 10.0243 7 9.6 7H6.4C5.97565 7 5.56869 7.16857 5.26863 7.46863C4.96857 7.76869 4.8 8.17565 4.8 8.6V9.24L1.0656 8.12C0.5896 7.9768 0.3512 7.9056 0.2 7.7344C0.170388 7.70096 0.143627 7.6651 0.12 7.6272C7.15256e-08 7.4328 0 7.1848 0 6.6872C0 4.7272 9.53674e-08 3.7472 0.5384 3.0856C0.6424 2.9576 0.758133 2.84187 0.8856 2.7384C1.5056 2.2344 2.4048 2.2024 4.128 2.2C4.152 2.184 4.176 2.16693 4.2 2.1488C4.4136 1.9856 4.5672 1.7808 4.6336 1.6024C4.664 1.5112 4.6864 1.4424 4.712 1.3792C4.86732 0.99293 5.12906 0.65866 5.4668 0.41523C5.80455 0.171799 6.20443 0.0291997 6.62 0.00400009M10.2544 2.0544C10.2731 2.104 10.2944 2.15253 10.3184 2.2H5.6808C5.70373 2.152 5.72507 2.10347 5.7448 2.0544V2.052L5.7488 2.044L5.7528 2.0344L5.7568 2.0248L5.7592 2.0168L5.7608 2.0128L5.764 2.0032L5.7672 1.9936L5.7688 1.9888L5.7712 1.9824L5.7728 1.9768L5.7744 1.972C5.8056 1.8792 5.8152 1.8496 5.8248 1.8272C5.89532 1.65154 6.01425 1.4995 6.16776 1.38875C6.32127 1.27801 6.50306 1.21311 6.692 1.2016C6.7176 1.2 6.7496 1.2 6.864 1.2H9.1344C9.2488 1.2 9.2808 1.2 9.3064 1.2016C9.692 1.2256 10.0296 1.4688 10.1744 1.8272C10.1824 1.8496 10.1928 1.8776 10.224 1.972L10.2256 1.9768L10.2272 1.9824L10.2296 1.9888L10.2312 1.9936L10.2344 2.0032L10.2376 2.0128L10.2392 2.0168L10.2424 2.0248L10.2456 2.0344L10.2496 2.044L10.2528 2.052L10.2544 2.0544ZM9.6 8.2H6.4C6.29391 8.2 6.19217 8.24214 6.11716 8.31716C6.04214 8.39217 6 8.49391 6 8.6V10.3296C6.00002 10.4095 6.02396 10.4875 6.06873 10.5537C6.1135 10.6198 6.17705 10.6711 6.2512 10.7008L6.8112 10.9248C7.57432 11.2302 8.42568 11.2302 9.1888 10.9248L9.7488 10.7008C9.82295 10.6711 9.8865 10.6198 9.93127 10.5537C9.97605 10.4875 9.99998 10.4095 10 10.3296V8.6C10 8.49391 9.95786 8.39217 9.88284 8.31716C9.80783 8.24214 9.70609 8.2 9.6 8.2ZM4.808 10.496L0.8048 9.2944C0.8288 11.7856 0.9744 14.0808 1.8544 14.8624C2.9088 15.8 4.6064 15.8 8 15.8C11.3936 15.8 13.0912 15.8 14.1456 14.8624C15.0256 14.0808 15.1712 11.7856 15.1952 9.2944L11.1912 10.4952C11.1611 10.7852 11.0523 11.0614 10.8766 11.294C10.7009 11.5266 10.465 11.7069 10.1944 11.8152L9.6344 12.0392C8.58523 12.459 7.41477 12.459 6.3656 12.0392L5.8056 11.8152C5.53496 11.7069 5.29907 11.5266 5.12339 11.294C4.94772 11.0614 4.83894 10.7852 4.8088 10.4952" fill="var(--fill-0, #1E1E1E)"/>
</svg>
