<svg preserveAspectRatio="none" width="100%" height="100%" overflow="visible" style="display: block;" viewBox="0 0 20 20" fill="none" xmlns="http://www.w3.org/2000/svg">
<path id="Vector" fill-rule="evenodd" clip-rule="evenodd" d="M1.55415 19.5292C3.35115 20.7502 6.49715 19.4912 12.7902 16.9752C14.1322 16.4382 14.8032 16.1692 15.3302 15.7082C15.4642 15.5902 15.5902 15.4642 15.7082 15.3302C16.1692 14.8032 16.4382 14.1322 16.9752 12.7902C19.4902 6.49715 20.7502 3.35015 19.5292 1.55415C19.2394 1.12833 18.872 0.760923 18.4462 0.471153C16.6492 -0.749847 13.5022 0.508153 7.21015 3.02515C5.86815 3.56215 5.19715 3.83115 4.67015 4.29215C4.53615 4.41015 4.41015 4.53615 4.29215 4.67015C3.83115 5.19715 3.56215 5.86815 3.02515 7.21015C0.508153 13.5022 -0.749847 16.6492 0.471153 18.4462C0.761153 18.8722 1.12815 19.2392 1.55415 19.5292ZM6.25015 10.0002C6.25015 9.00559 6.64524 8.05176 7.3485 7.3485C8.05176 6.64524 9.00559 6.25015 10.0002 6.25015C10.9947 6.25015 11.9485 6.64524 12.6518 7.3485C13.3551 8.05176 13.7502 9.00559 13.7502 10.0002C13.7502 10.9947 13.3551 11.9485 12.6518 12.6518C11.9485 13.3551 10.9947 13.7502 10.0002 13.7502C9.00559 13.7502 8.05176 13.3551 7.3485 12.6518C6.64524 11.9485 6.25015 10.9947 6.25015 10.0002ZM7.75015 10.0002C7.75015 9.40342 7.98721 8.83112 8.40916 8.40916C8.83112 7.98721 9.40342 7.75015 10.0002 7.75015C10.5969 7.75015 11.1692 7.98721 11.5911 8.40916C12.0131 8.83112 12.2502 9.40342 12.2502 10.0002C12.2502 10.5969 12.0131 11.1692 11.5911 11.5911C11.1692 12.0131 10.5969 12.2502 10.0002 12.2502C9.40342 12.2502 8.83112 12.0131 8.40916 11.5911C7.98721 11.1692 7.75015 10.5969 7.75015 10.0002Z" fill="var(--fill-0, #FF6CF1)"/>
</svg>
