<svg preserveAspectRatio="none" width="100%" height="100%" overflow="visible" style="display: block;" viewBox="0 0 17 20" fill="none" xmlns="http://www.w3.org/2000/svg">
<path id="Vector" d="M3 2.82992C3 4.37692 4.726 6.00792 6.15 7.08992C6.949 7.69592 7.348 7.99992 8 7.99992C8.652 7.99992 9.051 7.69592 9.85 7.08992C11.274 6.00692 13 4.37592 13 2.82992C13 0.0399227 10.25 -1.00308 8 1.15292C5.75 -1.00308 3 0.0399227 3 2.82992ZM2.26 19.3879H2C1.057 19.3879 0.586 19.3879 0.293 19.0949C2.08616e-07 18.8039 0 18.3319 0 17.3889V16.2769C0 15.7589 -1.04308e-07 15.4999 0.133 15.2679C0.266 15.0359 0.467 14.9199 0.869 14.6859C3.515 13.1469 7.272 12.2809 9.779 13.7759C9.94767 13.8766 10.0977 13.9993 10.229 14.1439C10.3636 14.291 10.4672 14.4636 10.5339 14.6514C10.6006 14.8393 10.6289 15.0386 10.6171 15.2376C10.6054 15.4365 10.5538 15.6311 10.4655 15.8098C10.3772 15.9886 10.2539 16.1477 10.103 16.2779C9.98276 16.3921 9.83603 16.4746 9.676 16.5179C9.796 16.5039 9.911 16.4883 10.021 16.4709C10.932 16.3259 11.697 15.8379 12.397 15.3089L14.205 13.9439C14.5277 13.7097 14.9163 13.5836 15.315 13.5836C15.7137 13.5836 16.1023 13.7097 16.425 13.9439C16.998 14.3769 17.174 15.0899 16.811 15.6719C16.388 16.3499 15.792 17.2169 15.22 17.7469C14.648 18.2769 13.794 18.7509 13.098 19.0869C12.326 19.4599 11.474 19.6739 10.607 19.8149C8.849 20.0989 7.017 20.0549 5.277 19.6969C4.28432 19.4926 3.27349 19.3884 2.26 19.3879Z" fill="var(--fill-0, #58A3F2)"/>
</svg>
