<svg preserveAspectRatio="none" width="100%" height="100%" overflow="visible" style="display: block;" viewBox="0 0 18 5" fill="none" xmlns="http://www.w3.org/2000/svg">
<path id="Vector" d="M5.134 0H12.114C12.346 0 12.524 1.05239e-07 12.68 0.0150001C13.788 0.124 14.695 0.79 15.08 1.687H2.168C2.553 0.79 3.46 0.124 4.568 0.0150001C4.722 1.05239e-07 4.9 0 5.134 0ZM2.934 2.723C1.544 2.723 0.404 3.563 0.0240002 4.677L0 4.747C0.398 4.627 0.813 4.547 1.232 4.494C2.312 4.355 3.678 4.355 5.264 4.355H12.156C13.742 4.355 15.107 4.355 16.188 4.494C16.608 4.548 17.022 4.626 17.42 4.747L17.397 4.677C17.017 3.563 15.877 2.723 14.486 2.723H2.934Z" fill="var(--fill-0, #FF5634)"/>
</svg>
