<svg preserveAspectRatio="none" width="100%" height="100%" overflow="visible" style="display: block;" viewBox="0 0 20 17" fill="none" xmlns="http://www.w3.org/2000/svg">
<path id="Vector" fill-rule="evenodd" clip-rule="evenodd" d="M11.437 0.782335L11.442 0.785335C12.6342 1.27107 13.6103 2.17188 14.19 3.32134C14.4982 3.93689 14.9716 4.45456 15.5572 4.81642C16.1428 5.17828 16.8176 5.37007 17.506 5.37034H18.751C18.9499 5.37034 19.1407 5.44935 19.2813 5.59001C19.422 5.73066 19.501 5.92142 19.501 6.12034C19.501 6.31925 19.422 6.51001 19.2813 6.65067C19.1407 6.79132 18.9499 6.87034 18.751 6.87034H17.506C16.539 6.87016 15.5911 6.60085 14.7684 6.09257C13.9458 5.58428 13.2808 4.85707 12.848 3.99234C12.4309 3.16661 11.729 2.51977 10.872 2.17134C9.508 1.60934 9.076 1.45134 8.252 1.51134C7.109 1.59434 6.059 2.17134 3.557 3.59334L2.122 4.40834C2.03638 4.45706 1.942 4.48843 1.84425 4.50068C1.7465 4.51293 1.6473 4.5058 1.5523 4.47971C1.36045 4.42701 1.1974 4.30026 1.099 4.12734C1.05028 4.04171 1.0189 3.94733 1.00665 3.84958C0.994409 3.75184 1.00154 3.65263 1.02763 3.55764C1.08033 3.36579 1.20708 3.20273 1.38 3.10434L2.816 2.28934L2.988 2.19133C5.262 0.898335 6.622 0.125335 8.143 0.0153354C9.361 -0.0736646 10.097 0.230335 11.438 0.781335M11.306 4.61634C11.3724 4.6892 11.4237 4.77442 11.4571 4.86714C11.4905 4.95986 11.5053 5.05825 11.5007 5.1567C11.496 5.25514 11.472 5.35171 11.4301 5.44087C11.3881 5.53003 11.3289 5.61004 11.256 5.67634L10.721 6.15434C10.441 6.40434 10.17 6.64434 9.923 6.87834C9.7584 7.0307 9.60122 7.19088 9.452 7.35834C9.39847 7.41672 9.34965 7.47925 9.306 7.54534C9.24784 7.70221 9.22177 7.86916 9.22933 8.0363C9.23689 8.20343 9.27792 8.36735 9.35 8.51834C9.392 8.60734 9.48 8.72833 9.713 8.93633C9.951 9.14833 10.281 9.39934 10.768 9.76834L10.843 9.82434C11.403 10.2493 11.792 10.5433 12.087 10.9143C12.415 11.3273 12.652 11.8043 12.783 12.3153C12.901 12.7753 12.901 13.2623 12.901 13.9653V16.1213C12.901 16.3202 12.822 16.511 12.6813 16.6517C12.5407 16.7923 12.3499 16.8713 12.151 16.8713C11.9521 16.8713 11.7613 16.7923 11.6207 16.6517C11.48 16.511 11.401 16.3202 11.401 16.1213V14.0603C11.401 13.2273 11.396 12.9433 11.331 12.6903C11.2524 12.3837 11.1099 12.0971 10.913 11.8493C10.75 11.6443 10.526 11.4673 9.863 10.9653L9.839 10.9463C9.45419 10.6638 9.07962 10.3676 8.716 10.0583C8.419 9.79434 8.163 9.51534 7.996 9.16434C7.83764 8.8322 7.74755 8.47166 7.73106 8.10407C7.71457 7.73648 7.77202 7.36932 7.9 7.02434C7.992 6.77634 8.17 6.54834 8.319 6.37734C8.482 6.18834 8.683 5.98734 8.892 5.79034C9.152 5.54434 9.457 5.27234 9.753 5.00834C9.925 4.85634 10.093 4.70634 10.246 4.56634C10.3189 4.49997 10.4041 4.44862 10.4968 4.41522C10.5895 4.38181 10.6879 4.36701 10.7864 4.37165C10.8848 4.37629 10.9814 4.40029 11.0705 4.44228C11.1597 4.48426 11.2397 4.54341 11.306 4.61634ZM7.23 10.5453C7.38271 10.6727 7.47861 10.8554 7.49662 11.0535C7.51462 11.2515 7.45325 11.4485 7.326 11.6013L6.326 12.8023L6.229 12.9183C5.587 13.6893 5.116 14.2563 4.458 14.5643C3.8 14.8723 3.063 14.8723 2.058 14.8713H0.75C0.551088 14.8713 0.360322 14.7923 0.21967 14.6517C0.0790175 14.511 0 14.3202 0 14.1213C0 13.9224 0.0790175 13.7317 0.21967 13.591C0.360322 13.4504 0.551088 13.3713 0.75 13.3713H1.908C3.13 13.3713 3.504 13.3543 3.821 13.2063C4.139 13.0573 4.391 12.7803 5.173 11.8423L6.173 10.6413C6.23606 10.5656 6.31344 10.503 6.40071 10.4572C6.48798 10.4113 6.58343 10.3831 6.6816 10.3742C6.77977 10.3653 6.87873 10.3758 6.97283 10.4052C7.06693 10.4346 7.15432 10.4822 7.23 10.5453Z" fill="var(--fill-0, #58A3F2)"/>
</svg>
