<svg preserveAspectRatio="none" width="100%" height="100%" overflow="visible" style="display: block;" viewBox="0 0 20 15" fill="none" xmlns="http://www.w3.org/2000/svg">
<path id="Vector" fill-rule="evenodd" clip-rule="evenodd" d="M13.3283 0H6.67233C3.29833 0 1.61033 4.76837e-07 0.662329 0.987C-0.285671 1.974 -0.0626707 3.498 0.384329 6.547L0.806329 9.439C1.15633 11.83 1.33133 13.026 2.22833 13.742C3.12633 14.458 4.44833 14.458 7.09533 14.458H12.9053C15.5513 14.458 16.8753 14.458 17.7723 13.742C18.6693 13.026 18.8443 11.83 19.1943 9.439L19.6163 6.548C20.0633 3.498 20.2863 1.974 19.3383 0.987C18.3903 4.76837e-07 16.7023 0 13.3283 0ZM12.5813 8.252C13.1403 7.906 13.1403 7.01 12.5813 6.664L9.21033 4.574C8.66733 4.237 8.00033 4.675 8.00033 5.368V9.548C8.00033 10.241 8.66733 10.678 9.21033 10.342L12.5813 8.252Z" fill="var(--fill-0, #FF5634)"/>
</svg>
