<svg preserveAspectRatio="none" width="100%" height="100%" overflow="visible" style="display: block;" viewBox="0 0 19 19" fill="none" xmlns="http://www.w3.org/2000/svg">
<path id="Vector" d="M6.5 3C6.5 3.79565 6.81607 4.55871 7.37868 5.12132C7.94129 5.68393 8.70435 6 9.5 6C10.2956 6 11.0587 5.68393 11.6213 5.12132C12.1839 4.55871 12.5 3.79565 12.5 3C12.5 2.20435 12.1839 1.44129 11.6213 0.87868C11.0587 0.316071 10.2956 0 9.5 0C8.70435 0 7.94129 0.316071 7.37868 0.87868C6.81607 1.44129 6.5 2.20435 6.5 3ZM0 15C-5.87055e-09 15.394 0.0775973 15.7841 0.228361 16.1481C0.379125 16.512 0.600104 16.8427 0.87868 17.1213C1.15726 17.3999 1.48797 17.6209 1.85195 17.7716C2.21593 17.9224 2.60603 18 3 18C3.39397 18 3.78407 17.9224 4.14805 17.7716C4.51203 17.6209 4.84274 17.3999 5.12132 17.1213C5.3999 16.8427 5.62087 16.512 5.77164 16.1481C5.9224 15.7841 6 15.394 6 15C6 14.2044 5.68393 13.4413 5.12132 12.8787C4.55871 12.3161 3.79565 12 3 12C2.20435 12 1.44129 12.3161 0.87868 12.8787C0.316071 13.4413 1.18561e-08 14.2044 0 15ZM16 18C15.2044 18 14.4413 17.6839 13.8787 17.1213C13.3161 16.5587 13 15.7956 13 15C13 14.2044 13.3161 13.4413 13.8787 12.8787C14.4413 12.3161 15.2044 12 16 12C16.7956 12 17.5587 12.3161 18.1213 12.8787C18.6839 13.4413 19 14.2044 19 15C19 15.7956 18.6839 16.5587 18.1213 17.1213C17.5587 17.6839 16.7956 18 16 18ZM4.705 4.562C4.85041 4.42934 4.93784 4.24483 4.94843 4.04827C4.95902 3.85172 4.89191 3.65889 4.76159 3.51137C4.63126 3.36386 4.44817 3.27349 4.25182 3.25976C4.05546 3.24604 3.86158 3.31005 3.712 3.438C2.78008 4.25827 2.03383 5.26788 1.52306 6.39944C1.01228 7.53101 0.748734 8.7585 0.75 10C0.75 10.1989 0.829018 10.3897 0.96967 10.5303C1.11032 10.671 1.30109 10.75 1.5 10.75C1.69891 10.75 1.88968 10.671 2.03033 10.5303C2.17098 10.3897 2.25 10.1989 2.25 10C2.2487 8.97108 2.46702 7.95373 2.89039 7.01595C3.31375 6.07816 3.93241 5.24154 4.705 4.562ZM15.288 3.438C15.1384 3.31005 14.9445 3.24604 14.7482 3.25976C14.5518 3.27349 14.3687 3.36386 14.2384 3.51137C14.1081 3.65889 14.041 3.85172 14.0516 4.04827C14.0622 4.24483 14.1496 4.42934 14.295 4.562C15.0676 5.24154 15.6862 6.07816 16.1096 7.01595C16.533 7.95373 16.7513 8.97108 16.75 10C16.75 10.1989 16.829 10.3897 16.9697 10.5303C17.1103 10.671 17.3011 10.75 17.5 10.75C17.6989 10.75 17.8897 10.671 18.0303 10.5303C18.171 10.3897 18.25 10.1989 18.25 10C18.2513 8.7585 17.9877 7.53101 17.4769 6.39944C16.9662 5.26788 16.2199 4.25827 15.288 3.438ZM7.687 17.022C7.59063 16.9942 7.48968 16.9861 7.3901 16.998C7.29053 17.0099 7.19436 17.0417 7.10728 17.0915C7.02021 17.1412 6.94399 17.2079 6.88315 17.2877C6.8223 17.3674 6.77806 17.4585 6.75305 17.5556C6.72803 17.6527 6.72275 17.7539 6.73751 17.8531C6.75227 17.9523 6.78677 18.0475 6.83898 18.1331C6.89119 18.2187 6.96004 18.293 7.04146 18.3516C7.12288 18.4101 7.21521 18.4518 7.313 18.474C8.74776 18.8421 10.2522 18.8421 11.687 18.474C11.7848 18.4518 11.8771 18.4101 11.9585 18.3516C12.04 18.293 12.1088 18.2187 12.161 18.1331C12.2132 18.0475 12.2477 17.9523 12.2625 17.8531C12.2772 17.7539 12.272 17.6527 12.247 17.5556C12.2219 17.4585 12.1777 17.3674 12.1169 17.2877C12.056 17.2079 11.9798 17.1412 11.8927 17.0915C11.8056 17.0417 11.7095 17.0099 11.6099 16.998C11.5103 16.9861 11.4094 16.9942 11.313 17.022C10.7206 17.1736 10.1115 17.2502 9.5 17.25C8.8885 17.2502 8.2794 17.1736 7.687 17.022Z" fill="var(--fill-0, #FF5634)"/>
</svg>
