<svg preserveAspectRatio="none" width="100%" height="100%" overflow="visible" style="display: block;" viewBox="0 0 20 18" fill="none" xmlns="http://www.w3.org/2000/svg">
<path id="Vector" d="M0 13.1262V1.98019C0 0.882185 0.886 -0.00981504 1.982 0.057185C2.959 0.117185 4.113 0.236185 5 0.469185C6.05 0.746185 7.296 1.33618 8.282 1.85718C8.589 2.02018 8.916 2.13219 9.25 2.19619V17.3752C8.9438 17.3082 8.64833 17.1991 8.372 17.0512C7.372 16.5192 6.082 15.9012 5 15.6152C4.123 15.3842 2.984 15.2652 2.015 15.2052C0.906 15.1352 0 14.2382 0 13.1262ZM10.75 17.3752C11.0562 17.3082 11.3517 17.1991 11.628 17.0512C12.628 16.5192 13.918 15.9012 15 15.6152C15.877 15.3842 17.016 15.2652 17.985 15.2052C19.094 15.1352 20 14.2372 20 13.1252V1.91618C20 0.844185 19.154 -0.036815 18.082 0.00118497C16.953 0.041185 15.547 0.157185 14.5 0.471185C13.592 0.742185 12.535 1.28718 11.674 1.78618C11.3852 1.95291 11.0741 2.0775 10.75 2.15618V17.3752Z" fill="var(--fill-0, #58A3F2)"/>
</svg>
