<svg preserveAspectRatio="none" width="100%" height="100%" overflow="visible" style="display: block;" viewBox="0 0 20 20" fill="none" xmlns="http://www.w3.org/2000/svg">
<path id="Vector" fill-rule="evenodd" clip-rule="evenodd" d="M0 10C0 15.523 4.477 20 10 20H19.25C19.4489 20 19.6397 19.921 19.7803 19.7803C19.921 19.6397 20 19.4489 20 19.25C20 19.0511 19.921 18.8603 19.7803 18.7197C19.6397 18.579 19.4489 18.5 19.25 18.5H15.27C16.7174 17.6036 17.9116 16.3522 18.7394 14.8646C19.5673 13.377 20.0012 11.7024 20 10C20 4.477 15.523 0 10 0C4.477 0 0 4.477 0 10ZM10 7C10.3978 7 10.7794 6.84196 11.0607 6.56066C11.342 6.27936 11.5 5.89782 11.5 5.5C11.5 5.10218 11.342 4.72064 11.0607 4.43934C10.7794 4.15804 10.3978 4 10 4C9.60218 4 9.22064 4.15804 8.93934 4.43934C8.65804 4.72064 8.5 5.10218 8.5 5.5C8.5 5.89782 8.65804 6.27936 8.93934 6.56066C9.22064 6.84196 9.60218 7 10 7ZM10 16C10.3978 16 10.7794 15.842 11.0607 15.5607C11.342 15.2794 11.5 14.8978 11.5 14.5C11.5 14.1022 11.342 13.7206 11.0607 13.4393C10.7794 13.158 10.3978 13 10 13C9.60218 13 9.22064 13.158 8.93934 13.4393C8.65804 13.7206 8.5 14.1022 8.5 14.5C8.5 14.8978 8.65804 15.2794 8.93934 15.5607C9.22064 15.842 9.60218 16 10 16ZM5.5 8.5C5.89782 8.5 6.27936 8.65804 6.56066 8.93934C6.84196 9.22064 7 9.60218 7 10C7 10.3978 6.84196 10.7794 6.56066 11.0607C6.27936 11.342 5.89782 11.5 5.5 11.5C5.10218 11.5 4.72064 11.342 4.43934 11.0607C4.15804 10.7794 4 10.3978 4 10C4 9.60218 4.15804 9.22064 4.43934 8.93934C4.72064 8.65804 5.10218 8.5 5.5 8.5ZM16 10C16 9.60218 15.842 9.22064 15.5607 8.93934C15.2794 8.65804 14.8978 8.5 14.5 8.5C14.1022 8.5 13.7206 8.65804 13.4393 8.93934C13.158 9.22064 13 9.60218 13 10C13 10.3978 13.158 10.7794 13.4393 11.0607C13.7206 11.342 14.1022 11.5 14.5 11.5C14.8978 11.5 15.2794 11.342 15.5607 11.0607C15.842 10.7794 16 10.3978 16 10Z" fill="var(--fill-0, white)"/>
</svg>
