<svg preserveAspectRatio="none" width="100%" height="100%" overflow="visible" style="display: block;" viewBox="0 0 18 20" fill="none" xmlns="http://www.w3.org/2000/svg">
<path id="Vector" fill-rule="evenodd" clip-rule="evenodd" d="M9 0C7.886 0 6.871 0.6 4.843 1.802L4.157 2.208C2.127 3.41 1.114 4.011 0.557 5C-5.96046e-08 5.99 0 7.19 0 9.594V10.406C0 12.809 -5.96046e-08 14.011 0.557 15C1.114 15.989 2.127 16.59 4.157 17.791L4.843 18.198C6.871 19.399 7.886 20 9 20C10.114 20 11.128 19.4 13.157 18.198L13.843 17.791C15.871 16.591 16.886 15.989 17.443 15C18 14.01 18 12.81 18 10.406V9.594C18 7.191 18 5.989 17.443 5C16.886 4.011 15.871 3.41 13.843 2.208L13.157 1.802C11.127 0.601 10.114 0 9 0ZM5.25 10C5.25 9.00544 5.64509 8.05161 6.34835 7.34835C7.05161 6.64509 8.00544 6.25 9 6.25C9.99456 6.25 10.9484 6.64509 11.6517 7.34835C12.3549 8.05161 12.75 9.00544 12.75 10C12.75 10.9946 12.3549 11.9484 11.6517 12.6517C10.9484 13.3549 9.99456 13.75 9 13.75C8.00544 13.75 7.05161 13.3549 6.34835 12.6517C5.64509 11.9484 5.25 10.9946 5.25 10Z" fill="var(--fill-0, #1E1E1E)"/>
</svg>
