<svg preserveAspectRatio="none" width="100%" height="100%" overflow="visible" style="display: block;" viewBox="0 0 18 19" fill="none" xmlns="http://www.w3.org/2000/svg">
<path id="Vector" d="M15.0087 0.0571601C15.1457 0.11393 15.2629 0.210072 15.3453 0.333427C15.4277 0.456782 15.4717 0.601808 15.4717 0.75016V4.99316C15.4717 5.19207 15.3926 5.38284 15.252 5.52349C15.1113 5.66414 14.9206 5.74316 14.7217 5.74316H10.4787C10.3304 5.74303 10.1855 5.69897 10.0623 5.61655C9.93912 5.53413 9.84309 5.41705 9.78638 5.28008C9.72967 5.14312 9.71482 4.99242 9.7437 4.84702C9.77259 4.70163 9.84391 4.56805 9.94867 4.46316L11.5507 2.85916C10.0791 2.24294 8.4454 2.1293 6.90271 2.53586C5.36002 2.94242 3.99451 3.84647 3.0178 5.10791C2.04108 6.36934 1.50772 7.91772 1.50037 9.51307C1.49301 11.1084 2.01207 12.6616 2.97711 13.932C3.94215 15.2024 5.29927 16.119 6.83815 16.5398C8.37702 16.9606 10.0117 16.862 11.4889 16.2594C12.9661 15.6567 14.2032 14.5837 15.0086 13.2066C15.814 11.8294 16.1427 10.2251 15.9437 8.64216C15.9231 8.44691 15.9798 8.25137 16.1018 8.09751C16.2238 7.94366 16.4012 7.84377 16.596 7.81929C16.7908 7.79481 16.9874 7.84769 17.1437 7.96658C17.2999 8.08547 17.4033 8.26088 17.4317 8.45516C17.6751 10.3913 17.2643 12.3533 16.2646 14.0292C15.2649 15.7051 13.7337 16.9987 11.9143 17.7044C10.095 18.4101 8.09196 18.4874 6.22366 17.924C4.35536 17.3605 2.72901 16.1888 1.60316 14.5949C0.4773 13.001 -0.0834475 11.0765 0.010055 9.12734C0.103558 7.17817 0.845944 5.3162 2.1192 3.83741C3.39245 2.35862 5.12349 1.34789 7.03715 0.96589C8.9508 0.583892 10.9372 0.852551 12.6807 1.72916L14.1907 0.21916C14.2956 0.114437 14.4292 0.0431569 14.5746 0.0143234C14.72 -0.01451 14.8717 0.000396404 15.0087 0.0571601Z" fill="var(--fill-0, white)"/>
</svg>
