<svg preserveAspectRatio="none" width="100%" height="100%" overflow="visible" style="display: block;" viewBox="0 0 15 16" fill="none" xmlns="http://www.w3.org/2000/svg">
<path id="Vector" fill-rule="evenodd" clip-rule="evenodd" d="M14.7576 6.67666L13.9126 3.37866C13.4726 1.65966 13.2526 0.80066 12.6766 0.36866C12.4846 0.225663 12.2686 0.118293 12.0386 0.0516601C11.3546 -0.14234 10.5786 0.22166 9.02363 0.94866C7.87363 1.48866 7.29763 1.75766 6.69763 1.94866C6.48895 2.01422 6.27817 2.07292 6.06563 2.12466C5.45463 2.27366 4.82763 2.34066 3.57263 2.47566C1.87863 2.65766 1.03263 2.74866 0.532631 3.27366C0.364831 3.4518 0.22946 3.6579 0.132631 3.88266C-0.159369 4.55766 0.0606311 5.41666 0.501631 7.13566L1.34663 10.4327C2.33963 14.3087 5.64263 15.5287 7.86263 15.9057C8.53963 16.0207 8.87863 16.0777 9.90663 15.7897C10.9346 15.5017 11.2006 15.2757 11.7316 14.8217C13.4736 13.3347 15.7516 10.5517 14.7576 6.67666ZM4.00463 7.36766C4.03363 7.07166 4.26463 6.76766 4.64263 6.66566C5.02163 6.56366 5.37263 6.71266 5.54563 6.95566C5.6614 7.11744 5.83669 7.22661 6.03295 7.25915C6.2292 7.29168 6.43035 7.24493 6.59213 7.12916C6.75391 7.01339 6.86308 6.8381 6.89562 6.64184C6.92816 6.44559 6.8814 6.24444 6.76563 6.08266C6.21563 5.31266 5.21363 4.95966 4.25463 5.21666C3.29563 5.47366 2.60363 6.28066 2.51163 7.22266C2.50211 7.32069 2.51199 7.41964 2.54071 7.51385C2.56943 7.60806 2.61642 7.6957 2.67901 7.77175C2.7416 7.8478 2.81855 7.91078 2.90548 7.95709C2.9924 8.0034 3.0876 8.03214 3.18563 8.04166C3.28366 8.05118 3.38261 8.0413 3.47682 8.01258C3.57104 7.98386 3.65867 7.93687 3.73472 7.87428C3.81077 7.81169 3.87375 7.73474 3.92006 7.64781C3.96637 7.56089 3.99511 7.46569 4.00463 7.36766ZM9.80063 5.81466C9.82963 5.51866 10.0606 5.21466 10.4386 5.11266C10.8176 5.01066 11.1686 5.15966 11.3416 5.40166C11.3978 5.48431 11.47 5.55489 11.5539 5.60925C11.6378 5.66361 11.7317 5.70065 11.8301 5.7182C11.9285 5.73575 12.0294 5.73344 12.1269 5.71143C12.2244 5.68942 12.3166 5.64814 12.3979 5.59001C12.4792 5.53189 12.5481 5.45809 12.6005 5.37296C12.6529 5.28784 12.6877 5.19309 12.703 5.09431C12.7182 4.99552 12.7136 4.89468 12.6893 4.79771C12.665 4.70074 12.6216 4.60961 12.5616 4.52966C12.0116 3.75966 11.0096 3.40666 10.0506 3.66366C9.09163 3.92066 8.39963 4.72666 8.30763 5.66966C8.2884 5.86764 8.34861 6.06516 8.47501 6.21875C8.60141 6.37234 8.78365 6.46943 8.98163 6.48866C9.17962 6.50789 9.37713 6.44768 9.53072 6.32128C9.68431 6.19488 9.7814 6.01264 9.80063 5.81466ZM11.6466 9.62866C11.8049 9.7469 11.9101 9.92279 11.9394 10.1181C11.9687 10.3135 11.9198 10.5125 11.8032 10.672C11.6867 10.8315 11.5119 10.9385 11.3169 10.9699C11.1219 11.0013 10.9223 10.9545 10.7616 10.8397L10.7516 10.8337C10.5994 10.746 10.4364 10.6787 10.2666 10.6337C9.90663 10.5357 9.33763 10.4707 8.58163 10.6737C7.82563 10.8757 7.36563 11.2167 7.10163 11.4817C6.97715 11.6057 6.86956 11.7455 6.78163 11.8977L6.77663 11.9077C6.73678 11.9977 6.67956 12.0791 6.60827 12.1471C6.53697 12.2151 6.45298 12.2683 6.3611 12.3038C6.26922 12.3394 6.17124 12.3564 6.07275 12.3541C5.97427 12.3517 5.87722 12.33 5.78713 12.2902C5.69704 12.2503 5.61569 12.1931 5.54771 12.1218C5.47974 12.0505 5.42647 11.9665 5.39095 11.8746C5.35543 11.7827 5.33836 11.6848 5.3407 11.5863C5.34305 11.4878 5.36477 11.3907 5.40463 11.3007L6.09263 11.5987C5.40463 11.3007 5.40563 11.2987 5.40563 11.2987L5.40763 11.2937L5.41163 11.2847L5.42163 11.2627L5.45463 11.1987C5.4813 11.1467 5.51963 11.0813 5.56963 11.0027C5.66963 10.8467 5.82163 10.6427 6.03763 10.4247C6.47463 9.98466 7.16263 9.50066 8.19363 9.22466C9.22463 8.94766 10.0636 9.02466 10.6606 9.18666C10.9566 9.26666 11.1906 9.36666 11.3546 9.45266C11.4431 9.49868 11.5292 9.54907 11.6126 9.60366L11.6326 9.61866L11.6406 9.62366L11.6436 9.62666H11.6456L11.6466 9.62866Z" fill="var(--fill-0, #FF6CF1)"/>
</svg>
