<svg preserveAspectRatio="none" width="100%" height="100%" overflow="visible" style="display: block;" viewBox="0 0 16 16" fill="none" xmlns="http://www.w3.org/2000/svg">
<g id="Union">
<path fill-rule="evenodd" clip-rule="evenodd" d="M2.8074 5.44552C3.03102 5.44552 3.24586 5.53272 3.40618 5.68813C3.40942 5.69106 3.41317 5.69356 3.41629 5.69669C3.57727 5.85789 3.6682 6.07618 3.66824 6.30399C3.66822 6.53185 3.57732 6.75085 3.41629 6.91207L2.84161 7.4875C2.46631 7.85928 2.16755 8.30186 1.96366 8.78919C1.75987 9.27638 1.65468 9.7992 1.65339 10.3273C1.65216 10.8555 1.75507 11.3794 1.95666 11.8677C2.15825 12.3559 2.45413 12.7998 2.82762 13.1733C3.2011 13.5468 3.64507 13.8426 4.13327 14.0442C4.6216 14.2458 5.14547 14.3487 5.67377 14.3475C6.20192 14.3462 6.72468 14.241 7.21193 14.0372C7.69922 13.8334 8.14193 13.5353 8.51369 13.1601L8.51447 13.1593L9.08759 12.5839L9.09459 12.5777C9.25754 12.4258 9.47302 12.3429 9.6957 12.3467C9.9185 12.3506 10.1315 12.4411 10.289 12.5986C10.4465 12.7561 10.537 12.9686 10.541 13.1912C10.5449 13.4139 10.4619 13.63 10.31 13.793L10.3038 13.7993L9.7307 14.3739L9.72758 14.377C8.64792 15.4274 7.19797 16.0102 5.69165 15.9999C4.18535 15.9895 2.74336 15.3869 1.67827 14.3218C0.613241 13.2567 0.0103875 11.8148 0.000131589 10.3086C-0.0100705 8.80239 0.57331 7.35239 1.62384 6.27289L2.20006 5.69669C2.36121 5.53585 2.57972 5.44562 2.8074 5.44552ZM5.42492 15.7293L5.69321 15.7378C5.88524 15.7391 6.07617 15.7288 6.26555 15.7098C6.07644 15.7285 5.88576 15.7383 5.69399 15.737C5.51803 15.7358 5.34264 15.7262 5.16908 15.7083C5.25405 15.717 5.33931 15.7245 5.42492 15.7293ZM4.43033 14.4283C4.45014 14.4343 4.47032 14.439 4.4902 14.4447C4.40298 14.4198 4.31608 14.3935 4.23047 14.363L4.43033 14.4283ZM10.2782 13.1958L10.2704 13.1095C10.2694 13.1035 10.2669 13.0977 10.2657 13.0916C10.2724 13.1258 10.2775 13.1605 10.2782 13.1958ZM1.72182 8.68733C1.70294 8.73245 1.68546 8.77851 1.66816 8.82419L1.72182 8.68733ZM1.62928 6.65313C1.61747 6.66653 1.60672 6.68083 1.59506 6.69434C1.6163 6.66973 1.63712 6.64474 1.65883 6.62047L1.62928 6.65313ZM3.4054 6.30399L3.39918 6.21612C3.39816 6.20928 3.39577 6.20269 3.39451 6.1959C3.40105 6.23137 3.4054 6.26743 3.4054 6.30399ZM3.22966 5.88253L3.16278 5.82499C3.15687 5.82063 3.15017 5.81745 3.14412 5.81333C3.17428 5.83394 3.20343 5.85637 3.22966 5.88253Z" fill="var(--fill-0, #1E1E1E)"/>
<path fill-rule="evenodd" clip-rule="evenodd" d="M9.6957 5.44474C9.92321 5.44476 10.1423 5.53539 10.3038 5.69669C10.4647 5.85785 10.5557 6.07628 10.5558 6.30399C10.5557 6.5318 10.4656 6.75088 10.3046 6.91207L6.86044 10.3568L6.85966 10.3561C6.78225 10.4373 6.69006 10.5032 6.58749 10.5489C6.48216 10.5958 6.36838 10.6215 6.25311 10.6235C6.13775 10.6256 6.0226 10.6045 5.91561 10.5613C5.80856 10.5181 5.71109 10.4532 5.62944 10.3716C5.54786 10.29 5.48371 10.1924 5.44048 10.0855C5.39733 9.97854 5.3755 9.86402 5.37749 9.74875C5.37952 9.63336 5.4052 9.51904 5.45214 9.41361C5.49911 9.30826 5.56685 9.2131 5.65122 9.13445L9.08759 5.69669C9.24881 5.53567 9.46785 5.44478 9.6957 5.44474Z" fill="var(--fill-0, #1E1E1E)"/>
<path fill-rule="evenodd" clip-rule="evenodd" d="M10.2704 0C11.7902 3.3179e-05 13.2479 0.603529 14.3226 1.67806C14.3257 1.68116 14.3283 1.68496 14.3312 1.68817C15.3998 2.76194 16 4.21567 16 5.7309C16 7.25033 15.3961 8.70758 14.3219 9.78219L13.7487 10.3561L13.7417 10.3623C13.5787 10.5141 13.3626 10.5972 13.1399 10.5932C12.9172 10.5892 12.7048 10.4987 12.5473 10.3413C12.3897 10.1837 12.2993 9.97073 12.2953 9.74797C12.2915 9.52531 12.3745 9.30984 12.5263 9.14689L12.5325 9.13989L13.1056 8.5668L13.1072 8.56602C13.4824 8.19428 13.7805 7.75159 13.9844 7.26432C14.1882 6.77711 14.2941 6.25435 14.2954 5.72623C14.2967 5.19797 14.1929 4.67411 13.9914 4.18581C13.7898 3.69763 13.4939 3.2537 13.1204 2.88022C12.7469 2.50673 12.303 2.21089 11.8148 2.00931C11.3264 1.80772 10.8026 1.70481 10.2743 1.70605C9.74613 1.70735 9.22332 1.81251 8.7361 2.01631C8.24874 2.2202 7.80613 2.51892 7.43434 2.89422L6.86044 3.46809L6.85344 3.47431C6.69044 3.62615 6.47506 3.70916 6.25233 3.70526C6.02956 3.70132 5.81655 3.61085 5.65899 3.45331C5.50165 3.29585 5.41182 3.08335 5.40782 2.86078C5.40388 2.63803 5.48613 2.42194 5.638 2.25892L6.21811 1.67883C7.29284 0.604364 8.75062 9.1048e-06 10.2704 0ZM12.7985 10.2122C12.8031 10.2157 12.8085 10.2182 12.8132 10.2215C12.785 10.2018 12.7579 10.1801 12.7331 10.1554L12.7985 10.2122ZM14.136 9.59634L14.3118 9.41205C14.3125 9.41123 14.3126 9.40977 14.3133 9.40894C14.2556 9.47243 14.197 9.53537 14.136 9.59634ZM5.91017 3.32423C5.91588 3.32848 5.9222 3.33186 5.92805 3.3359C5.89873 3.31561 5.8704 3.29302 5.84485 3.26747L5.91017 3.32423ZM5.7212 2.60495C5.71961 2.60857 5.71805 2.6122 5.71654 2.61584C5.72897 2.58598 5.74368 2.55709 5.76086 2.52953L5.7212 2.60495ZM8.63501 1.7737C8.57663 1.79812 8.51871 1.82453 8.46159 1.85146L8.63501 1.7737ZM9.64516 1.49066C9.61886 1.49463 9.59283 1.50019 9.56661 1.50465C9.66178 1.48842 9.75741 1.47475 9.85356 1.465L9.64516 1.49066Z" fill="var(--fill-0, #1E1E1E)"/>
</g>
</svg>
