<svg preserveAspectRatio="none" width="100%" height="100%" overflow="visible" style="display: block;" viewBox="0 0 20 13" fill="none" xmlns="http://www.w3.org/2000/svg">
<path id="Vector" d="M0.162 0C-5.96046e-08 1.103 0 2.55 0 4.5C0 8.271 -1.19209e-07 10.157 1.172 11.328C2.344 12.499 4.229 12.5 8 12.5H12C15.771 12.5 17.657 12.5 18.828 11.328C19.999 10.156 20 8.271 20 4.5C20 2.55 20 1.104 19.838 0C17.561 1.48 16.102 2.424 14.75 3.005V3.5C14.7523 3.69891 14.6754 3.89057 14.5363 4.03282C14.3973 4.17507 14.2074 4.25625 14.0085 4.2585C13.8096 4.26075 13.6179 4.1839 13.4757 4.04484C13.3334 3.90578 13.2523 3.71591 13.25 3.517C11.1197 4.07856 8.88028 4.07856 6.75 3.517C6.74775 3.71591 6.66657 3.90578 6.52432 4.04484C6.38207 4.1839 6.19041 4.26075 5.9915 4.2585C5.79259 4.25625 5.60272 4.17507 5.46366 4.03282C5.3246 3.89057 5.24775 3.69891 5.25 3.5V3.005C3.898 2.423 2.44 1.48 0.162 0Z" fill="var(--fill-0, #A872FF)"/>
</svg>
