<svg preserveAspectRatio="none" width="100%" height="100%" overflow="visible" style="display: block;" viewBox="0 0 20 20" fill="none" xmlns="http://www.w3.org/2000/svg">
<path id="Vector" d="M2.019 14.5373L5.588 18.0273C6.933 19.3413 7.606 20.0003 8.443 20.0003C8.957 20.0003 9.409 19.7523 9.993 19.2553C10.351 18.9513 10.53 18.7983 10.538 18.5783C10.546 18.3583 10.369 18.1853 10.016 17.8383L2.106 10.0733C1.866 9.83725 1.746 9.71925 1.614 9.68625C1.52633 9.66452 1.43441 9.66693 1.348 9.69325C1.218 9.73325 1.101 9.85925 0.869 10.1113C0.289 10.7413 0 11.2093 0 11.7453C0 12.5633 0.673 13.2213 2.019 14.5373ZM18.078 11.3973C18.6861 10.8085 19.1697 10.1036 19.4999 9.32424C19.8302 8.54492 20.0003 7.70716 20.0003 6.86075C20.0003 6.01435 19.8302 5.17658 19.4999 4.39726C19.1697 3.61794 18.6861 2.91296 18.078 2.32425C15.516 -0.180748 11.362 -0.180748 8.8 2.32425L8.334 2.77925C7.914 1.15225 6.668 -0.0197479 5.214 0.000252115C3.441 0.0272521 2.032 1.81725 2.066 4.00025L2.033 7.45725C2.031 7.67525 2.03 7.78425 2.069 7.87825C2.108 7.97225 2.184 8.04825 2.337 8.19825L11.125 16.8253C11.455 17.1493 11.62 17.3113 11.825 17.3113C12.03 17.3113 12.195 17.1503 12.525 16.8263L18.078 11.3973Z" fill="var(--fill-0, #0DAE30)"/>
</svg>
