<svg preserveAspectRatio="none" width="100%" height="100%" overflow="visible" style="display: block;" viewBox="0 0 14 16" fill="none" xmlns="http://www.w3.org/2000/svg">
<path id="Vector" d="M0.754994 7.824L1.27199 9.756C1.87599 12.011 2.17899 13.139 2.86399 13.87C3.40464 14.4468 4.10408 14.8505 4.87399 15.03C5.84999 15.258 6.97799 14.956 9.23399 14.352C11.488 13.748 12.616 13.446 13.347 12.761C13.4077 12.7037 13.4663 12.645 13.523 12.585C13.1824 12.5543 12.8439 12.5042 12.509 12.435C11.813 12.297 10.986 12.075 10.008 11.813L9.90099 11.784L9.87599 11.778C8.81199 11.492 7.92299 11.254 7.21299 10.998C6.46599 10.728 5.78799 10.395 5.21099 9.855C4.41731 9.11141 3.86191 8.14919 3.61499 7.09C3.43499 6.321 3.48699 5.567 3.62699 4.786C3.76099 4.037 4.00099 3.139 4.28899 2.064L4.82399 0.0699997L4.84199 0C2.92199 0.517 1.91099 0.823 1.23699 1.454C0.659486 1.99505 0.255445 2.69525 0.0759935 3.466C-0.152007 4.441 0.149994 5.569 0.754994 7.824Z" fill="var(--fill-0, #0DAE30)"/>
</svg>
