<svg preserveAspectRatio="none" width="100%" height="100%" overflow="visible" style="display: block;" viewBox="0 0 20 20" fill="none" xmlns="http://www.w3.org/2000/svg">
<path id="Vector" fill-rule="evenodd" clip-rule="evenodd" d="M10 20C4.477 20 0 15.523 0 10C0 4.477 4.477 0 10 0C15.523 0 20 4.477 20 10C20 15.523 15.523 20 10 20ZM9.53 6.47C9.38937 6.32955 9.19875 6.25066 9 6.25066C8.80125 6.25066 8.61063 6.32955 8.47 6.47L5.47 9.47C5.32955 9.61063 5.25066 9.80125 5.25066 10C5.25066 10.1988 5.32955 10.3894 5.47 10.53L8.47 13.53C8.53866 13.6037 8.62146 13.6628 8.71346 13.7038C8.80546 13.7448 8.90478 13.7668 9.00548 13.7686C9.10618 13.7704 9.20621 13.7518 9.2996 13.7141C9.39299 13.6764 9.47782 13.6203 9.54904 13.549C9.62026 13.4778 9.6764 13.393 9.71412 13.2996C9.75184 13.2062 9.77037 13.1062 9.76859 13.0055C9.76682 12.9048 9.74477 12.8055 9.70378 12.7135C9.66279 12.6215 9.60369 12.5387 9.53 12.47L7.81 10.75H14C14.1989 10.75 14.3897 10.671 14.5303 10.5303C14.671 10.3897 14.75 10.1989 14.75 10C14.75 9.80109 14.671 9.61032 14.5303 9.46967C14.3897 9.32902 14.1989 9.25 14 9.25H7.81L9.53 7.53C9.67045 7.38937 9.74934 7.19875 9.74934 7C9.74934 6.80125 9.67045 6.61063 9.53 6.47Z" fill="var(--fill-0, #1E1E1E)"/>
</svg>
