<svg preserveAspectRatio="none" width="100%" height="100%" overflow="visible" style="display: block;" viewBox="0 0 20 20" fill="none" xmlns="http://www.w3.org/2000/svg">
<path id="Vector" d="M0.436 3.04058C1.19209e-07 3.53658 0 4.38857 0 6.09057V15.4846C0 16.6906 5.96046e-08 17.2936 0.315 17.7476C0.629 18.2016 1.179 18.3926 2.279 18.7736L3.573 19.2226C4.274 19.4656 4.813 19.6526 5.266 19.7726C5.562 19.8516 5.833 19.6196 5.833 19.3136V4.16358C5.82954 4.04213 5.78597 3.92525 5.70908 3.83118C5.6322 3.73711 5.52633 3.67114 5.408 3.64358C5.019 3.54458 4.551 3.38258 3.91 3.16058C2.357 2.62158 1.58 2.35258 0.99 2.62558C0.778827 2.72445 0.590251 2.86571 0.436 3.04058ZM10.62 1.37458L9.084 2.43958C8.529 2.82458 8.121 3.10758 7.774 3.30858C7.69257 3.35464 7.6245 3.42107 7.57646 3.50136C7.52843 3.58165 7.50208 3.67304 7.5 3.76658V18.8136C7.5 19.1836 7.884 19.4156 8.196 19.2156C8.531 19.0016 8.915 18.7356 9.38 18.4136L10.916 17.3486C11.471 16.9636 11.879 16.6806 12.226 16.4796C12.3074 16.4335 12.3755 16.3671 12.4235 16.2868C12.4716 16.2065 12.4979 16.1151 12.5 16.0216V0.973575C12.5 0.602575 12.116 0.371575 11.804 0.570575C11.469 0.785575 11.085 1.05158 10.62 1.37458ZM17.72 1.01358L16.427 0.565575C15.726 0.322575 15.187 0.135575 14.734 0.0155753C14.438 -0.0634247 14.167 0.168575 14.167 0.474575V15.6246C14.1705 15.746 14.214 15.8629 14.2909 15.957C14.3678 16.051 14.4737 16.117 14.592 16.1446C14.981 16.2436 15.449 16.4046 16.09 16.6276C17.643 17.1666 18.42 17.4356 19.01 17.1626C19.2212 17.0637 19.4097 16.9224 19.564 16.7476C20 16.2516 20 15.3996 20 13.6976V4.30358C20 3.09758 20 2.49358 19.685 2.04058C19.371 1.58658 18.821 1.39558 17.721 1.01458" fill="var(--fill-0, #58A3F2)"/>
</svg>
