<svg preserveAspectRatio="none" width="100%" height="100%" overflow="visible" style="display: block;" viewBox="0 0 20 20" fill="none" xmlns="http://www.w3.org/2000/svg">
<path id="Vector" d="M10 20C15.523 20 20 15.523 20 10C20 4.477 15.523 0 10 0C4.477 0 0 4.477 0 10C0 11.6 0.376 13.112 1.043 14.453C1.221 14.809 1.28 15.216 1.177 15.601L0.582 17.827C0.52307 18.0473 0.523124 18.2792 0.582155 18.4995C0.641186 18.7197 0.757118 18.9206 0.918315 19.0819C1.07951 19.2432 1.2803 19.3593 1.50053 19.4184C1.72075 19.4776 1.95267 19.4778 2.173 19.419L4.399 18.823C4.78538 18.7254 5.19414 18.7727 5.548 18.956C6.93095 19.6446 8.45512 20.002 10 20Z" fill="var(--fill-0, #58A3F2)"/>
</svg>
