<svg preserveAspectRatio="none" width="100%" height="100%" overflow="visible" style="display: block;" viewBox="0 0 19 19" fill="none" xmlns="http://www.w3.org/2000/svg">
<path id="Vector" d="M0.844322 1.84553C0.303709 2.38619 0 3.11946 0 3.88403C0 4.64861 0.303709 5.38187 0.844322 5.92253L2.43132 7.51053L2.46932 7.47053L6.46932 3.47053L6.50932 3.43253L4.92132 1.84553C4.38066 1.30492 3.6474 1.00121 2.88282 1.00121C2.11825 1.00121 1.38498 1.30492 0.844322 1.84553ZM7.56732 4.49053L7.52932 4.53053L3.52932 8.53053L3.48932 8.56853L13.0773 18.1565C13.6212 18.6822 14.3498 18.9731 15.1061 18.9667C15.8625 18.9602 16.586 18.6569 17.1209 18.1221C17.6557 17.5872 17.959 16.8637 17.9655 16.1074C17.9719 15.351 17.681 14.6224 17.1553 14.0785L7.56732 4.49053ZM13.0993 0.307532C13.1347 0.216927 13.1965 0.139098 13.2768 0.084227C13.3571 0.0293562 13.4521 0 13.5493 0C13.6466 0 13.7416 0.0293562 13.8218 0.084227C13.9021 0.139098 13.964 0.216927 13.9993 0.307532L14.4293 1.40253C14.4532 1.46455 14.4897 1.52092 14.5366 1.56809C14.5834 1.61525 14.6395 1.65218 14.7013 1.67653L15.7923 2.10853C15.8827 2.14452 15.9601 2.20678 16.0147 2.28728C16.0693 2.36777 16.0985 2.46278 16.0985 2.56003C16.0985 2.65728 16.0693 2.7523 16.0147 2.83279C15.9601 2.91328 15.8827 2.97554 15.7923 3.01153L14.7023 3.44353C14.641 3.46867 14.5853 3.50575 14.5384 3.55262C14.4915 3.59949 14.4545 3.6552 14.4293 3.71653L13.9993 4.81053C13.964 4.90114 13.9021 4.97897 13.8218 5.03384C13.7416 5.08871 13.6466 5.11806 13.5493 5.11806C13.4521 5.11806 13.3571 5.08871 13.2768 5.03384C13.1965 4.97897 13.1347 4.90114 13.0993 4.81053L12.6693 3.71553C12.6442 3.6542 12.6071 3.59849 12.5602 3.55162C12.5134 3.50475 12.4577 3.46767 12.3963 3.44253L11.3063 3.01053C11.216 2.97454 11.1385 2.91228 11.0839 2.83179C11.0293 2.7513 11.0002 2.65628 11.0002 2.55903C11.0002 2.46178 11.0293 2.36677 11.0839 2.28628C11.1385 2.20578 11.216 2.14352 11.3063 2.10753L12.3963 1.67553C12.4577 1.65028 12.5135 1.61304 12.5604 1.566C12.6073 1.51895 12.6443 1.46304 12.6693 1.40153L13.0993 0.307532ZM16.9663 7.13053C17.0017 7.03993 17.0635 6.9621 17.1438 6.90723C17.2241 6.85236 17.3191 6.823 17.4163 6.823C17.5136 6.823 17.6086 6.85236 17.6888 6.90723C17.7691 6.9621 17.831 7.03993 17.8663 7.13053L18.0223 7.52953C18.0723 7.65453 18.1703 7.75353 18.2953 7.80253L18.6933 7.96053C18.7834 7.99668 18.8605 8.05896 18.9149 8.13933C18.9692 8.21971 18.9982 8.31451 18.9982 8.41153C18.9982 8.50855 18.9692 8.60335 18.9149 8.68373C18.8605 8.76411 18.7834 8.82638 18.6933 8.86253L18.2953 9.02053C18.234 9.04567 18.1783 9.08275 18.1314 9.12962C18.0845 9.17649 18.0475 9.2322 18.0223 9.29353L17.8663 9.69353C17.831 9.78414 17.7691 9.86197 17.6888 9.91684C17.6086 9.97171 17.5136 10.0011 17.4163 10.0011C17.3191 10.0011 17.2241 9.97171 17.1438 9.91684C17.0635 9.86197 17.0017 9.78414 16.9663 9.69353L16.8093 9.29353C16.7843 9.2323 16.7474 9.17664 16.7007 9.12977C16.654 9.08291 16.5985 9.04578 16.5373 9.02053L16.1393 8.86253C16.0493 8.82638 15.9721 8.76411 15.9178 8.68373C15.8635 8.60335 15.8344 8.50855 15.8344 8.41153C15.8344 8.31451 15.8635 8.21971 15.9178 8.13933C15.9721 8.05896 16.0493 7.99668 16.1393 7.96053L16.5373 7.80253C16.5985 7.77728 16.654 7.74015 16.7007 7.69329C16.7474 7.64643 16.7843 7.59077 16.8093 7.52953L16.9663 7.13053ZM2.13232 13.3075C2.16765 13.2169 2.22951 13.1391 2.3098 13.0842C2.39009 13.0294 2.48507 13 2.58232 13C2.67957 13 2.77456 13.0294 2.85485 13.0842C2.93514 13.1391 2.99699 13.2169 3.03232 13.3075L3.18932 13.7075C3.21334 13.7694 3.24991 13.8255 3.29672 13.8725C3.34354 13.9195 3.39958 13.9563 3.46132 13.9805L3.85932 14.1375C3.94967 14.1735 4.02714 14.2358 4.08172 14.3163C4.1363 14.3968 4.16548 14.4918 4.16548 14.589C4.16548 14.6863 4.1363 14.7813 4.08172 14.8618C4.02714 14.9423 3.94967 15.0045 3.85932 15.0405L3.46132 15.1985C3.39958 15.2228 3.34354 15.2595 3.29672 15.3065C3.24991 15.3535 3.21334 15.4097 3.18932 15.4715L3.03232 15.8715C2.99699 15.9621 2.93514 16.04 2.85485 16.0948C2.77456 16.1497 2.67957 16.1791 2.58232 16.1791C2.48507 16.1791 2.39009 16.1497 2.3098 16.0948C2.22951 16.04 2.16765 15.9621 2.13232 15.8715L1.97532 15.4715C1.95131 15.4097 1.91474 15.3535 1.86792 15.3065C1.82111 15.2595 1.76506 15.2228 1.70332 15.1985L1.30532 15.0405C1.21498 15.0045 1.1375 14.9423 1.08292 14.8618C1.02834 14.7813 0.999166 14.6863 0.999166 14.589C0.999166 14.4918 1.02834 14.3968 1.08292 14.3163C1.1375 14.2358 1.21498 14.1735 1.30532 14.1375L1.70332 13.9805C1.76516 13.9562 1.82126 13.9193 1.86809 13.8721C1.91491 13.8249 1.95142 13.7685 1.97532 13.7065L2.13232 13.3075Z" fill="var(--fill-0, #CAAE93)"/>
</svg>
