<svg preserveAspectRatio="none" width="100%" height="100%" overflow="visible" style="display: block;" viewBox="0 0 14 15" fill="none" xmlns="http://www.w3.org/2000/svg">
<path id="Vector" fill-rule="evenodd" clip-rule="evenodd" d="M13.5 6.8235V10.5682C13.5 12.8902 13.5 14.052 12.9495 14.559C12.687 14.8013 12.3555 14.9535 12.0023 14.994C11.262 15.0788 10.3972 14.3137 8.6685 12.7845C7.9035 12.1087 7.52175 11.7705 7.08 11.682C6.86224 11.6376 6.63776 11.6376 6.42 11.682C5.9775 11.7705 5.59575 12.1087 4.8315 12.7845C3.10275 14.3137 2.238 15.0787 1.49775 14.9932C1.14395 14.9526 0.812243 14.8005 0.5505 14.559C-4.47035e-08 14.052 0 12.891 0 10.5682V6.82275C0 3.6075 -8.9407e-08 1.9995 0.9885 0.99975C1.977 0 3.5685 0 6.75 0C9.9315 0 11.523 0 12.5115 0.999C13.5 1.998 13.5 3.6075 13.5 6.8235Z" fill="var(--fill-0, #1E1E1E)"/>
</svg>
