<svg preserveAspectRatio="none" width="100%" height="100%" overflow="visible" style="display: block;" viewBox="0 0 16 20" fill="none" xmlns="http://www.w3.org/2000/svg">
<path id="Vector" fill-rule="evenodd" clip-rule="evenodd" d="M0 8C0 4.229 -1.19209e-07 2.343 1.172 1.172C2.344 0.000999928 4.229 0 8 0C11.771 0 13.657 -1.19209e-07 14.828 1.172C15.999 2.344 16 4.229 16 8V12C16 15.771 16 17.657 14.828 18.828C13.656 19.999 11.771 20 8 20C4.229 20 2.343 20 1.172 18.828C0.000999928 17.656 0 15.771 0 12V8ZM5.25 5.5C5.25 4.77065 5.53973 4.07118 6.05546 3.55546C6.57118 3.03973 7.27065 2.75 8 2.75C8.72935 2.75 9.42882 3.03973 9.94454 3.55546C10.4603 4.07118 10.75 4.77065 10.75 5.5C10.75 6.22935 10.4603 6.92882 9.94454 7.44454C9.42882 7.96027 8.72935 8.25 8 8.25C7.27065 8.25 6.57118 7.96027 6.05546 7.44454C5.53973 6.92882 5.25 6.22935 5.25 5.5ZM8 9.75C7.50754 9.75 7.01991 9.847 6.56494 10.0355C6.10997 10.2239 5.69657 10.5001 5.34835 10.8483C5.00013 11.1966 4.72391 11.61 4.53545 12.0649C4.347 12.5199 4.25 13.0075 4.25 13.5C4.25 13.9925 4.347 14.4801 4.53545 14.9351C4.72391 15.39 5.00013 15.8034 5.34835 16.1517C5.69657 16.4999 6.10997 16.7761 6.56494 16.9645C7.01991 17.153 7.50754 17.25 8 17.25C8.99456 17.25 9.94839 16.8549 10.6517 16.1516C11.3549 15.4484 11.75 14.4946 11.75 13.5C11.75 12.5054 11.3549 11.5516 10.6517 10.8483C9.94839 10.1451 8.99456 9.75 8 9.75Z" fill="var(--fill-0, #3C77FF)"/>
</svg>
