<svg preserveAspectRatio="none" width="100%" height="100%" overflow="visible" style="display: block;" viewBox="0 0 20 16" fill="none" xmlns="http://www.w3.org/2000/svg">
<path id="Vector" fill-rule="evenodd" clip-rule="evenodd" d="M9.911 1.31424L10.524 1.92324C11.433 2.82624 11.749 3.12324 12.129 3.27924C12.509 3.43524 12.943 3.44924 14.224 3.44924H16.25C16.4489 3.44924 16.6397 3.52826 16.7803 3.66891C16.921 3.80956 17 4.00033 17 4.19924C17 4.39815 16.921 4.58892 16.7803 4.72957C16.6397 4.87022 16.4489 4.94924 16.25 4.94924H14.082C12.999 4.94924 12.246 4.94924 11.557 4.66624C10.868 4.38224 10.335 3.85124 9.567 3.08624L9.467 2.98624L8.889 2.41324C8.48 2.00724 8.229 1.76024 8.029 1.61024C7.97257 1.56541 7.91034 1.52841 7.844 1.50024L7.834 1.50624C7.7778 1.54459 7.72672 1.58996 7.682 1.64124C7.512 1.82624 7.309 2.11324 6.981 2.58724L5.754 4.35424C5.42 4.83624 5.217 5.13124 5.102 5.36124C5.06749 5.42546 5.04192 5.49409 5.026 5.56524L5.033 5.57324C5.08235 5.62188 5.13782 5.66389 5.198 5.69824C5.416 5.83324 5.744 5.97824 6.281 6.21324L7.797 6.87324C8.445 7.15724 8.991 7.39524 9.411 7.64124C9.858 7.90324 10.236 8.21324 10.489 8.67624C10.742 9.14024 10.8 9.62524 10.779 10.1422C10.76 10.6292 10.666 11.2182 10.555 11.9162L10.491 12.3172C10.4597 12.5138 10.3516 12.6898 10.1905 12.8066C10.0294 12.9235 9.82853 12.9715 9.632 12.9402C9.43547 12.9089 9.25943 12.8009 9.1426 12.6398C9.02576 12.4787 8.9777 12.2778 9.009 12.0812L9.067 11.7222C9.187 10.9702 9.265 10.4702 9.281 10.0822C9.295 9.71524 9.248 9.53324 9.173 9.39624C9.098 9.26024 8.971 9.12124 8.653 8.93624C8.319 8.73924 7.856 8.53624 7.157 8.23124L5.681 7.58724L5.635 7.56724C5.159 7.35924 4.73 7.17224 4.409 6.97424C4.061 6.75924 3.719 6.45924 3.582 5.97424C3.444 5.48824 3.578 5.05424 3.762 4.68824C3.93 4.35224 4.197 3.96824 4.493 3.54024L4.522 3.49924L5.749 1.73124L5.777 1.69124C6.067 1.27124 6.33 0.89324 6.583 0.62124C6.858 0.32524 7.213 0.05124 7.708 0.00623996C8.203 -0.03876 8.601 0.16624 8.925 0.40824C9.222 0.63024 9.549 0.95424 9.911 1.31424ZM3.75 9.94924C3.15326 9.94924 2.58097 10.1863 2.15901 10.6082C1.73705 11.0302 1.5 11.6025 1.5 12.1992C1.5 12.796 1.73705 13.3683 2.15901 13.7902C2.58097 14.2122 3.15326 14.4492 3.75 14.4492C4.34674 14.4492 4.91903 14.2122 5.34099 13.7902C5.76295 13.3683 6 12.796 6 12.1992C6 11.6025 5.76295 11.0302 5.34099 10.6082C4.91903 10.1863 4.34674 9.94924 3.75 9.94924ZM0 12.1992C0 11.2047 0.395088 10.2509 1.09835 9.54759C1.80161 8.84433 2.75544 8.44924 3.75 8.44924C4.74456 8.44924 5.69839 8.84433 6.40165 9.54759C7.10491 10.2509 7.5 11.2047 7.5 12.1992C7.5 13.1938 7.10491 14.1476 6.40165 14.8509C5.69839 15.5542 4.74456 15.9492 3.75 15.9492C2.75544 15.9492 1.80161 15.5542 1.09835 14.8509C0.395088 14.1476 0 13.1938 0 12.1992ZM15.75 9.94924C15.1533 9.94924 14.581 10.1863 14.159 10.6082C13.7371 11.0302 13.5 11.6025 13.5 12.1992C13.5 12.796 13.7371 13.3683 14.159 13.7902C14.581 14.2122 15.1533 14.4492 15.75 14.4492C16.3467 14.4492 16.919 14.2122 17.341 13.7902C17.7629 13.3683 18 12.796 18 12.1992C18 11.6025 17.7629 11.0302 17.341 10.6082C16.919 10.1863 16.3467 9.94924 15.75 9.94924ZM12 12.1992C12 11.2047 12.3951 10.2509 13.0983 9.54759C13.8016 8.84433 14.7554 8.44924 15.75 8.44924C16.7446 8.44924 17.6984 8.84433 18.4017 9.54759C19.1049 10.2509 19.5 11.2047 19.5 12.1992C19.5 13.1938 19.1049 14.1476 18.4017 14.8509C17.6984 15.5542 16.7446 15.9492 15.75 15.9492C14.7554 15.9492 13.8016 15.5542 13.0983 14.8509C12.3951 14.1476 12 13.1938 12 12.1992Z" fill="var(--fill-0, #3C77FF)"/>
</svg>
