<svg preserveAspectRatio="none" width="100%" height="100%" overflow="visible" style="display: block;" viewBox="0 0 20 20" fill="none" xmlns="http://www.w3.org/2000/svg">
<path id="Vector" fill-rule="evenodd" clip-rule="evenodd" d="M7.913 0.524368C7.97255 0.713998 7.9544 0.919514 7.86252 1.09577C7.77064 1.27202 7.61256 1.4046 7.423 1.46437C5.70513 2.0052 4.20452 3.07983 3.13932 4.53205C2.07412 5.98427 1.49985 7.73837 1.5 9.53937C1.49987 10.6504 1.7186 11.7506 2.14369 12.7772C2.56879 13.8037 3.19193 14.7364 3.97752 15.5221C4.76312 16.3078 5.69579 16.9311 6.72227 17.3563C7.74875 17.7815 8.84893 18.0004 9.96 18.0004C11.7609 18.0006 13.5149 17.4265 14.9671 16.3615C16.4193 15.2964 17.494 13.7961 18.035 12.0784C18.0619 11.9814 18.1081 11.8908 18.1708 11.8121C18.2334 11.7333 18.3113 11.668 18.3997 11.62C18.4882 11.5719 18.5854 11.5422 18.6855 11.5325C18.7857 11.5228 18.8868 11.5334 18.9828 11.5636C19.0788 11.5938 19.1677 11.6431 19.2443 11.7084C19.3209 11.7737 19.3835 11.8537 19.4285 11.9437C19.4735 12.0337 19.4999 12.1319 19.5062 12.2323C19.5125 12.3328 19.4985 12.4335 19.465 12.5284C18.197 16.5684 14.422 19.5004 9.961 19.5004C4.46 19.5004 0 15.0404 0 9.54037C0 5.07837 2.932 1.30437 6.973 0.0343678C7.16276 -0.0251438 7.36839 -0.0068501 7.54467 0.0852263C7.72095 0.177303 7.85343 0.334622 7.913 0.524368Z" fill="var(--fill-0, #0DAE30)"/>
</svg>
