<svg preserveAspectRatio="none" width="100%" height="100%" overflow="visible" style="display: block;" viewBox="0 0 20 20" fill="none" xmlns="http://www.w3.org/2000/svg">
<path id="Vector" fill-rule="evenodd" clip-rule="evenodd" d="M18.536 18.536C20 17.07 20 14.714 20 10C20 5.286 20 2.929 18.535 1.464C17.072 0 14.714 0 10 0C5.286 0 2.929 0 1.464 1.464C0 2.93 0 5.286 0 10C0 14.714 0 17.071 1.464 18.535C2.93 20 5.286 20 10 20C14.714 20 17.071 20 18.535 18.535M12.827 6.421C13.0259 6.421 13.2167 6.50002 13.3573 6.64067C13.498 6.78132 13.577 6.97209 13.577 7.171V11.413C13.577 11.6119 13.498 11.8027 13.3573 11.9433C13.2167 12.084 13.0259 12.163 12.827 12.163C12.6281 12.163 12.4373 12.084 12.2967 11.9433C12.156 11.8027 12.077 11.6119 12.077 11.413V8.981L7.702 13.36C7.63334 13.4337 7.55054 13.4928 7.45854 13.5338C7.36654 13.5748 7.26723 13.5968 7.16652 13.5986C7.06582 13.6004 6.96579 13.5818 6.8724 13.5441C6.77901 13.5064 6.69418 13.4503 6.62296 13.379C6.55174 13.3078 6.4956 13.223 6.45788 13.1296C6.42016 13.0362 6.40163 12.9362 6.40341 12.8355C6.40518 12.7348 6.42723 12.6355 6.46822 12.5435C6.50921 12.4515 6.56831 12.3687 6.642 12.3L11.018 7.923H8.586C8.38709 7.923 8.19632 7.84398 8.05567 7.70333C7.91502 7.56268 7.836 7.37191 7.836 7.173C7.836 6.97409 7.91502 6.78332 8.05567 6.64267C8.19632 6.50202 8.38709 6.423 8.586 6.423L12.827 6.421Z" fill="var(--fill-0, #1E1E1E)"/>
</svg>
