<svg preserveAspectRatio="none" width="100%" height="100%" overflow="visible" style="display: block;" viewBox="0 0 3 6" fill="none" xmlns="http://www.w3.org/2000/svg">
<path id="Vector" d="M1.13021 0.107392C1.04572 0.0565501 0.952046 0.0228659 0.854532 0.00826671C0.757018 -0.00633251 0.657584 -0.00156043 0.561917 0.02231C0.466249 0.0461805 0.376226 0.088681 0.297001 0.147379C0.217776 0.206077 0.150903 0.279821 0.100208 0.364392L0.350208 1.38839L0.357208 1.39339L0.420208 1.44239C0.480208 1.49239 0.564208 1.57139 0.650208 1.68239C0.882439 1.9892 1.00371 2.36572 0.994208 2.75039C1.00371 3.13506 0.882439 3.51158 0.650208 3.81839C0.566353 3.92808 0.467756 4.02567 0.357208 4.10839L0.349207 4.11239C0.18293 4.21752 0.0646134 4.38377 0.0197584 4.57531C-0.0250967 4.76685 0.00710076 4.96835 0.109411 5.13637C0.211722 5.3044 0.375955 5.4255 0.566714 5.47358C0.757472 5.52165 0.959482 5.49286 1.12921 5.39339H1.13121L1.13321 5.39139L1.13621 5.39039L1.14321 5.38539L1.16321 5.37339C1.23912 5.32436 1.31162 5.27023 1.38021 5.21139C1.50921 5.10439 1.67421 4.94639 1.83921 4.73239C2.27294 4.16351 2.50355 3.4657 2.49421 2.75039C2.50355 2.03508 2.27294 1.33727 1.83921 0.768392C1.66221 0.538002 1.45269 0.334545 1.21721 0.164392L1.16321 0.127392L1.14321 0.115392L1.13621 0.110391L1.13321 0.109391L1.13121 0.108392C1.13121 0.108392 1.13021 0.107391 0.744208 0.750391L1.13021 0.107392Z" fill="var(--fill-0, #3C77FF)"/>
</svg>
