<svg preserveAspectRatio="none" width="100%" height="100%" overflow="visible" style="display: block;" viewBox="0 0 19 9" fill="none" xmlns="http://www.w3.org/2000/svg">
<path id="Vector" fill-rule="evenodd" clip-rule="evenodd" d="M8.001 0.000300629H7.981C7.867 0.000300629 7.779 0.000300744 7.695 0.00530074C7.17543 0.0368854 6.67549 0.215282 6.2533 0.519756C5.83111 0.82423 5.504 1.24228 5.31 1.7253C5.26741 1.83871 5.2274 1.95307 5.19 2.0683L5.186 2.0803C5.08312 2.35284 4.90909 2.59283 4.682 2.7753C4.45467 2.78263 4.237 2.79263 4.029 2.8053C2.385 2.9013 1.342 3.1713 0.592 3.9223C0.34801 4.16557 0.147748 4.44904 0 4.7603C0.058 4.7803 0.113667 4.8073 0.167 4.8413C2.267 6.2063 3.587 7.0613 4.684 7.6083C4.7198 7.4256 4.82228 7.26274 4.9715 7.1514C5.12072 7.04007 5.30601 6.98821 5.49135 7.00592C5.67668 7.02363 5.8488 7.10964 5.97424 7.24722C6.09967 7.3848 6.16945 7.56412 6.17 7.7503V8.2083C8.29 8.8483 10.55 8.8483 12.67 8.2083V7.7503C12.6693 7.56322 12.7385 7.38261 12.864 7.24392C12.9896 7.10523 13.1625 7.01849 13.3487 7.0007C13.5349 6.98292 13.7211 7.03538 13.8706 7.14779C14.0202 7.26021 14.1223 7.42446 14.157 7.6083C15.253 7.0603 16.573 6.2063 18.673 4.8413C18.7253 4.80791 18.7814 4.78073 18.84 4.7603C18.6923 4.44904 18.492 4.16557 18.248 3.9223C17.498 3.1723 16.455 2.9023 14.811 2.8043C14.6137 2.79363 14.4077 2.7843 14.193 2.7763L14.153 2.7423C13.9208 2.54165 13.7407 2.28775 13.628 2.0023L13.625 1.9933C13.589 1.8863 13.562 1.8023 13.53 1.7243C13.3358 1.24146 13.0087 0.823626 12.5865 0.519338C12.1643 0.215049 11.6645 0.0368003 11.145 0.00530074C11.0501 0.000925949 10.955 -0.00074151 10.86 0.000300629H8.001ZM12.238 2.5663L12.233 2.5553L12.228 2.5433L12.224 2.5313L12.22 2.5213L12.218 2.5163L12.214 2.5043L12.21 2.4923L12.208 2.4863L12.205 2.4783L12.203 2.4713L12.201 2.4653C12.1818 2.40448 12.1611 2.34413 12.139 2.2843C12.0508 2.06458 11.902 1.87443 11.7099 1.73599C11.5178 1.59754 11.2903 1.51651 11.054 1.5023C10.9824 1.49971 10.9107 1.49904 10.839 1.5003H8.001C7.858 1.5003 7.818 1.5003 7.786 1.5023C7.54983 1.51669 7.32259 1.59781 7.1307 1.73624C6.93881 1.87467 6.79015 2.06472 6.702 2.2843L6.699 2.2913L6.691 2.3123C6.66379 2.38844 6.63811 2.46512 6.614 2.5423L6.612 2.5483L6.609 2.5553L6.607 2.5633L6.605 2.5693L6.601 2.5813L6.597 2.5933L6.595 2.5983L6.591 2.6083L6.587 2.6203L6.582 2.6323L6.578 2.6423L6.577 2.6433L6.533 2.7513L7.42 2.7503H12.316C12.288 2.68985 12.2619 2.62848 12.238 2.5663Z" fill="var(--fill-0, #A872FF)"/>
</svg>
