<svg preserveAspectRatio="none" width="100%" height="100%" overflow="visible" style="display: block;" viewBox="0 0 20 15" fill="none" xmlns="http://www.w3.org/2000/svg">
<path id="Vector" fill-rule="evenodd" clip-rule="evenodd" d="M10.5955 1.57054C10.0201 1.4749 9.43286 1.4749 8.85747 1.57054C6.35047 1.99354 4.47747 4.19454 4.47747 6.76854C4.47747 7.33254 4.16047 7.85354 3.65347 8.10954L1.06447 9.41854C0.888032 9.50002 0.68685 9.50984 0.503316 9.44592C0.319781 9.38199 0.168227 9.24932 0.080587 9.07586C-0.00705319 8.90239 -0.0239353 8.70168 0.0334974 8.51601C0.0909302 8.33034 0.218193 8.17422 0.388471 8.08054L2.97547 6.77254L2.97647 6.76954C2.97647 3.46354 5.37847 0.636536 8.60847 0.0925358C9.3487 -0.0308453 10.1042 -0.0308453 10.8445 0.0925358C14.0745 0.636536 16.4765 3.46354 16.4765 6.76954V6.77154L19.0645 8.08054C19.1559 8.12276 19.2379 8.18297 19.3055 8.25757C19.3732 8.33217 19.4251 8.41963 19.4583 8.51474C19.4914 8.60985 19.505 8.71065 19.4984 8.81114C19.4917 8.91163 19.4648 9.00974 19.4194 9.09963C19.374 9.18952 19.3109 9.26934 19.234 9.33434C19.1571 9.39933 19.0679 9.44817 18.9716 9.47793C18.8754 9.50769 18.7742 9.51777 18.674 9.50757C18.5738 9.49736 18.4767 9.46708 18.3885 9.41854L15.7995 8.11054C15.5516 7.98515 15.3433 7.79338 15.198 7.55661C15.0527 7.31983 14.976 7.04735 14.9765 6.76954C14.9765 4.19554 13.1035 1.99454 10.5955 1.57154M7.67647 7.14854C7.8356 7.26788 7.9408 7.44556 7.96893 7.64247C7.99706 7.83938 7.94582 8.03941 7.82647 8.19854L6.78047 9.59354L6.70947 9.68654C6.34785 10.1439 5.85023 10.4745 5.28847 10.6305L5.17547 10.6595L5.16747 10.6615L3.68247 11.0325C3.33775 11.1183 3.03169 11.3171 2.8131 11.5971C2.59452 11.8771 2.47601 12.2223 2.47647 12.5775C2.47647 12.8095 2.66547 12.9985 2.89747 12.9985H4.45347C5.07047 12.9985 5.31847 12.9975 5.55647 12.9685C6.13477 12.9008 6.69298 12.715 7.19647 12.4225C7.40247 12.3025 7.60147 12.1545 8.09447 11.7845L10.2765 10.1485C10.4356 10.0292 10.6356 9.97794 10.8325 10.0061C11.0294 10.0342 11.2071 10.1394 11.3265 10.2985C11.4458 10.4577 11.4971 10.6577 11.4689 10.8546C11.4408 11.0515 11.3356 11.2292 11.1765 11.3485L10.2725 12.0265L11.5295 12.4985C12.1565 12.7335 12.4095 12.8265 12.6665 12.8875C12.8045 12.9195 12.9445 12.9449 13.0865 12.9635C13.3475 12.9975 13.6165 12.9985 14.2865 12.9985H16.5555C16.6108 12.9987 16.6656 12.9879 16.7167 12.9668C16.7679 12.9456 16.8143 12.9146 16.8535 12.8755C16.8926 12.8364 16.9236 12.7899 16.9447 12.7388C16.9658 12.6877 16.9766 12.6329 16.9765 12.5775C16.9765 11.8475 16.4795 11.2095 15.7705 11.0325L14.2775 10.6595L14.1655 10.6295C13.6035 10.4739 13.1055 10.1437 12.7435 9.68654L12.6735 9.59354L11.6265 8.19854C11.5674 8.11974 11.5244 8.03008 11.4999 7.93467C11.4755 7.83926 11.4701 7.73997 11.484 7.64247C11.4979 7.54497 11.5309 7.45117 11.5811 7.36642C11.6313 7.28167 11.6977 7.20763 11.7765 7.14854C11.8553 7.08944 11.9449 7.04644 12.0403 7.022C12.1357 6.99756 12.235 6.99215 12.3325 7.00607C12.43 7.02 12.5238 7.053 12.6086 7.10318C12.6933 7.15336 12.7674 7.21974 12.8265 7.29854L13.8685 8.68754L13.9205 8.75654C14.1029 8.98772 14.3611 9.14709 14.6495 9.20654L16.1345 9.57654C16.8037 9.74349 17.3977 10.1295 17.8222 10.6732C18.2466 11.2168 18.4769 11.8868 18.4765 12.5765C18.4765 13.6385 17.6165 14.4985 16.5555 14.4985H14.2345C13.6325 14.4985 13.2615 14.4985 12.8925 14.4505C12.7016 14.4253 12.512 14.391 12.3245 14.3475C11.9625 14.2625 11.6145 14.1325 11.0515 13.9215L8.84847 13.0955C8.46747 13.3805 8.21647 13.5655 7.94847 13.7195C7.26792 14.1154 6.51334 14.3672 5.73147 14.4595C5.39647 14.4995 5.05547 14.4985 4.50147 14.4985H2.89847C2.64625 14.4985 2.3965 14.4488 2.16349 14.3523C1.93048 14.2557 1.71877 14.1142 1.54047 13.9358C1.36217 13.7574 1.22076 13.5457 1.12433 13.3126C1.0279 13.0795 0.978339 12.8298 0.978471 12.5775C0.977991 11.888 1.20818 11.2181 1.63239 10.6744C2.05661 10.1308 2.65047 9.74468 3.31947 9.57754L4.80447 9.20654L4.88847 9.18454C5.17206 9.10607 5.41887 8.93007 5.58547 8.68754L6.62647 7.29854C6.68556 7.21974 6.7596 7.15336 6.84435 7.10318C6.9291 7.053 7.0229 7.02 7.1204 7.00607C7.21791 6.99215 7.3172 6.99756 7.41261 7.022C7.50802 7.04644 7.59768 7.08944 7.67647 7.14854Z" fill="var(--fill-0, #CAAE93)"/>
</svg>
