<svg preserveAspectRatio="none" width="100%" height="100%" overflow="visible" style="display: block;" viewBox="0 0 20 13" fill="none" xmlns="http://www.w3.org/2000/svg">
<path id="Vector" d="M12.2169 0.499474C11.5241 0.170613 10.7668 0 9.99993 0C9.23303 0 8.47574 0.170613 7.78293 0.499474L1.09193 3.63647C0.0159318 4.14047 -0.265068 5.56347 0.249932 6.54647V11.4995C0.249932 11.6984 0.328949 11.8892 0.469602 12.0298C0.610254 12.1705 0.801019 12.2495 0.999932 12.2495C1.19884 12.2495 1.38961 12.1705 1.53026 12.0298C1.67091 11.8892 1.74993 11.6984 1.74993 11.4995V7.67147L7.78293 10.4995C8.47574 10.8283 9.23303 10.9989 9.99993 10.9989C10.7668 10.9989 11.5241 10.8283 12.2169 10.4995L18.9079 7.36247C20.3639 6.68047 20.3639 4.31847 18.9079 3.63647L12.2169 0.499474Z" fill="var(--fill-0, #A872FF)"/>
</svg>
