<svg preserveAspectRatio="none" width="100%" height="100%" overflow="visible" style="display: block;" viewBox="0 0 20 20" fill="none" xmlns="http://www.w3.org/2000/svg">
<path id="Exclude" d="M10 0C15.523 0 20 4.477 20 10C20 15.523 15.523 20 10 20C4.477 20 0 15.523 0 10C0 4.477 4.477 0 10 0ZM12.5059 6.73145C12.4053 6.73322 12.3057 6.75504 12.2139 6.7959C12.1219 6.83689 12.0384 6.89604 11.9697 6.96973L10 8.94043L8.03027 6.96973C7.96161 6.89605 7.87813 6.83689 7.78613 6.7959C7.69426 6.75504 7.59468 6.73322 7.49414 6.73145C7.39357 6.72972 7.29347 6.74846 7.2002 6.78613C7.10691 6.82385 7.02232 6.88002 6.95117 6.95117C6.88002 7.02232 6.82385 7.10691 6.78613 7.2002C6.74846 7.29347 6.72972 7.39357 6.73145 7.49414C6.73322 7.59468 6.75504 7.69426 6.7959 7.78613C6.83689 7.87813 6.89605 7.96161 6.96973 8.03027L8.94043 10L6.96973 11.9697C6.89604 12.0384 6.83689 12.1219 6.7959 12.2139C6.75504 12.3057 6.73322 12.4053 6.73145 12.5059C6.72972 12.6064 6.74846 12.7065 6.78613 12.7998C6.82385 12.8931 6.88002 12.9777 6.95117 13.0488C7.02232 13.12 7.10691 13.1761 7.2002 13.2139C7.29347 13.2515 7.39357 13.2703 7.49414 13.2686C7.59468 13.2668 7.69426 13.245 7.78613 13.2041C7.87813 13.1631 7.96161 13.104 8.03027 13.0303L10 11.0596L11.9697 13.0303C12.1118 13.1627 12.3 13.2348 12.4941 13.2314C12.6884 13.228 12.8743 13.1491 13.0117 13.0117C13.1491 12.8743 13.228 12.6884 13.2314 12.4941C13.2348 12.3 13.1627 12.1118 13.0303 11.9697L11.0596 10L13.0303 8.03027C13.104 7.96161 13.1631 7.87813 13.2041 7.78613C13.245 7.69426 13.2668 7.59468 13.2686 7.49414C13.2703 7.39357 13.2515 7.29347 13.2139 7.2002C13.1761 7.10691 13.12 7.02232 13.0488 6.95117C12.9777 6.88002 12.8931 6.82385 12.7998 6.78613C12.7065 6.74846 12.6064 6.72972 12.5059 6.73145Z" fill="var(--fill-0, #1E1E1E)"/>
</svg>
