<svg preserveAspectRatio="none" width="100%" height="100%" overflow="visible" style="display: block;" viewBox="0 0 17 17" fill="none" xmlns="http://www.w3.org/2000/svg">
<path id="Vector" d="M7.03379 0.928702L4.49079 3.4657C4.02379 3.9317 3.59479 4.3587 3.25579 4.7457C3.02639 5.00083 2.81929 5.27517 2.63679 5.5657L2.61279 5.5407L2.51779 5.4467C2.07477 5.01872 1.55502 4.6781 0.985786 4.4427L0.862786 4.3927L0.483786 4.2427C0.365756 4.19617 0.261173 4.12097 0.179476 4.02391C0.0977798 3.92684 0.0415425 3.81096 0.0158409 3.68672C-0.00986063 3.56248 -0.00421717 3.43379 0.0322615 3.31228C0.0687402 3.19076 0.134906 3.08024 0.224785 2.9907C1.34479 1.8727 2.68979 0.531702 3.33979 0.262702C3.90433 0.0268882 4.52204 -0.0522259 5.12779 0.0337018C5.67379 0.114702 6.18979 0.395702 7.03379 0.928702ZM11.3768 14.2787C11.5818 14.4867 11.7168 14.6337 11.8408 14.7907C12.0028 14.998 12.1475 15.2174 12.2748 15.4487C12.4168 15.7087 12.5278 15.9857 12.7488 16.5407C12.7922 16.6457 12.8608 16.7383 12.9485 16.8104C13.0363 16.8825 13.1405 16.9318 13.2519 16.9539C13.3632 16.9761 13.4784 16.9704 13.587 16.9374C13.6957 16.9044 13.7945 16.8451 13.8748 16.7647L13.9588 16.6817C15.0788 15.5647 16.4238 14.2237 16.6938 13.5767C16.931 13.0146 17.0101 12.3985 16.9228 11.7947C16.8418 11.2497 16.5608 10.7347 16.0258 9.8927L13.4738 12.4367C12.9958 12.9137 12.5578 13.3507 12.1608 13.6927C11.9238 13.8987 11.6638 14.1027 11.3768 14.2787Z" fill="var(--fill-0, #CAAE93)"/>
</svg>
