<svg preserveAspectRatio="none" width="100%" height="100%" overflow="visible" style="display: block;" viewBox="0 0 20 18" fill="none" xmlns="http://www.w3.org/2000/svg">
<path id="Vector" fill-rule="evenodd" clip-rule="evenodd" d="M0 8C0 4.229 -1.19209e-07 2.343 1.172 1.172C2.344 0.000999928 4.229 0 8 0H12.25V18H8C4.229 18 2.343 18 1.172 16.828C0.000999928 15.656 0 13.771 0 10V8ZM13.75 17.994V0.00600004C16.386 0.033 17.854 0.197 18.828 1.172C20 2.343 20 4.229 20 8V10C20 13.771 20 15.657 18.828 16.828C17.854 17.803 16.386 17.967 13.75 17.994ZM7.97 12.47C8.11063 12.3295 8.30125 12.2507 8.5 12.2507C8.69875 12.2507 8.88937 12.3295 9.03 12.47L10.03 13.47C10.1705 13.6106 10.2493 13.8012 10.2493 14C10.2493 14.1988 10.1705 14.3894 10.03 14.53L9.03 15.53C8.96134 15.6037 8.87854 15.6628 8.78654 15.7038C8.69454 15.7448 8.59522 15.7668 8.49452 15.7686C8.39382 15.7704 8.29379 15.7518 8.2004 15.7141C8.10701 15.6764 8.02218 15.6203 7.95096 15.549C7.87974 15.4778 7.8236 15.393 7.78588 15.2996C7.74816 15.2062 7.72963 15.1062 7.73141 15.0055C7.73318 14.9048 7.75523 14.8055 7.79622 14.7135C7.83721 14.6215 7.89631 14.5387 7.97 14.47L8.44 14L7.97 13.53C7.82955 13.3894 7.75066 13.1988 7.75066 13C7.75066 12.8012 7.82955 12.6106 7.97 12.47ZM7.702 11.263C7.74009 11.1701 7.75914 11.0705 7.75801 10.97C7.75687 10.8696 7.73559 10.7705 7.69541 10.6784C7.65522 10.5864 7.59697 10.5034 7.5241 10.4343C7.45123 10.3652 7.36522 10.3114 7.27118 10.2762C7.17714 10.2409 7.07698 10.225 6.97664 10.2292C6.87631 10.2334 6.77784 10.2577 6.68708 10.3007C6.59631 10.3436 6.51511 10.4044 6.44827 10.4794C6.38144 10.5543 6.33034 10.6419 6.298 10.737L4.798 14.737C4.73523 14.9216 4.74678 15.1233 4.83021 15.2995C4.91364 15.4757 5.06238 15.6124 5.24493 15.6808C5.42748 15.7492 5.62948 15.7438 5.80813 15.6659C5.98679 15.5879 6.12805 15.4434 6.202 15.263L7.702 11.263ZM4.53 10.47C4.67045 10.6106 4.74934 10.8012 4.74934 11C4.74934 11.1988 4.67045 11.3894 4.53 11.53L4.06 12L4.53 12.47C4.60369 12.5387 4.66279 12.6215 4.70378 12.7135C4.74477 12.8055 4.76681 12.9048 4.76859 13.0055C4.77037 13.1062 4.75184 13.2062 4.71412 13.2996C4.6764 13.393 4.62026 13.4778 4.54904 13.549C4.47782 13.6203 4.39299 13.6764 4.2996 13.7141C4.20621 13.7518 4.10618 13.7704 4.00548 13.7686C3.90477 13.7668 3.80546 13.7448 3.71346 13.7038C3.62146 13.6628 3.53866 13.6037 3.47 13.53L2.47 12.53C2.32955 12.3894 2.25066 12.1988 2.25066 12C2.25066 11.8012 2.32955 11.6106 2.47 11.47L3.47 10.47C3.61063 10.3295 3.80125 10.2507 4 10.2507C4.19875 10.2507 4.38937 10.3295 4.53 10.47Z" fill="var(--fill-0, #0DAE30)"/>
</svg>
