<svg preserveAspectRatio="none" width="100%" height="100%" overflow="visible" style="display: block;" viewBox="0 0 20 20" fill="none" xmlns="http://www.w3.org/2000/svg">
<path id="Vector" fill-rule="evenodd" clip-rule="evenodd" d="M20 10C20 15.523 15.523 20 10 20C4.477 20 0 15.523 0 10C0 4.477 4.477 0 10 0C15.523 0 20 4.477 20 10ZM13 7C13 7.79565 12.6839 8.55871 12.1213 9.12132C11.5587 9.68393 10.7956 10 10 10C9.20435 10 8.44129 9.68393 7.87868 9.12132C7.31607 8.55871 7 7.79565 7 7C7 6.20435 7.31607 5.44129 7.87868 4.87868C8.44129 4.31607 9.20435 4 10 4C10.7956 4 11.5587 4.31607 12.1213 4.87868C12.6839 5.44129 13 6.20435 13 7ZM10 18.5C11.7163 18.5028 13.3928 17.9834 14.807 17.011C15.411 16.596 15.669 15.806 15.317 15.163C14.59 13.83 13.09 13 10 13C6.91 13 5.41 13.83 4.682 15.163C4.331 15.806 4.589 16.596 5.193 17.011C6.6072 17.9834 8.28372 18.5028 10 18.5Z" fill="var(--fill-0, #1E1E1E)" fill-opacity="0.4"/>
</svg>
