<svg preserveAspectRatio="none" width="100%" height="100%" overflow="visible" style="display: block;" viewBox="0 0 21 12" fill="none" xmlns="http://www.w3.org/2000/svg">
<path id="Vector" d="M3.03235 0C2.08771 0.537588 1.30684 1.32167 0.773144 2.26851C0.239446 3.21535 -0.0270336 4.28938 0.00216615 5.37589C0.0313659 6.46239 0.355149 7.52055 0.938932 8.43736C1.52272 9.35417 2.34457 10.0952 3.31672 10.5813C4.28887 11.0673 5.37479 11.2802 6.45851 11.1972C7.54222 11.1141 8.58303 10.7382 9.46975 10.1097C10.3565 9.48114 11.0558 8.62353 11.4931 7.62847C11.9303 6.63341 12.0891 5.53826 11.9523 4.46C10.1773 4.93847 8.28841 4.74862 6.64411 3.92647C4.99982 3.10432 3.71458 1.7071 3.03235 0ZM13.3863 3.911C13.461 4.335 13.4987 4.77033 13.4993 5.217C13.4993 7.307 12.6443 9.199 11.2643 10.559C12.6627 11.2954 14.2951 11.4503 15.8071 10.9901C17.319 10.5299 18.5883 9.49183 19.3393 8.10126C20.0903 6.71069 20.2623 5.07998 19.818 3.56332C19.3737 2.04666 18.349 0.766535 16.9663 0.0010004C16.2864 1.69521 15.0142 3.08472 13.3863 3.911Z" fill="var(--fill-0, #FF6CF1)"/>
</svg>
