<svg preserveAspectRatio="none" width="100%" height="100%" overflow="visible" style="display: block;" viewBox="0 0 20 21" fill="none" xmlns="http://www.w3.org/2000/svg">
<path id="Vector" d="M16.357 0.363952C16.4594 0.193425 16.6253 0.0705499 16.8183 0.0223538C17.0112 -0.0258423 17.2155 0.00458829 17.386 0.106952L17.389 0.108952L17.392 0.110952L17.402 0.116952C17.4409 0.140976 17.4789 0.166324 17.516 0.192952C17.5873 0.242285 17.6797 0.312952 17.793 0.404952C18.015 0.589952 18.305 0.866952 18.595 1.24295C19.177 1.99995 19.75 3.15695 19.75 4.74995C19.75 6.34295 19.177 7.49995 18.595 8.25695C18.305 8.63295 18.015 8.90995 17.793 9.09495C17.6726 9.19562 17.5464 9.28912 17.415 9.37495L17.402 9.38295L17.392 9.38895L17.389 9.39095L17.387 9.39195C17.387 9.39195 17.386 9.39295 17 8.74995L17.386 9.39295C17.2161 9.48935 17.0154 9.51569 16.8264 9.46636C16.6374 9.41704 16.4752 9.29594 16.3741 9.12882C16.273 8.96171 16.2411 8.76175 16.2852 8.57148C16.3292 8.38121 16.4458 8.21563 16.61 8.10995L16.615 8.10595L16.655 8.07895C16.6957 8.05095 16.7547 8.00562 16.832 7.94295C16.985 7.81495 17.195 7.61695 17.405 7.34295C17.823 6.79995 18.25 5.95695 18.25 4.74995C18.25 3.54295 17.823 2.69995 17.406 2.15695C17.2372 1.93659 17.0447 1.73538 16.832 1.55695C16.7622 1.49937 16.6898 1.44498 16.615 1.39395L16.61 1.38995C16.441 1.28694 16.3195 1.12127 16.2721 0.929076C16.2247 0.736881 16.2552 0.533744 16.357 0.363952ZM8 8.74995C9.06087 8.74995 10.0783 8.32852 10.8284 7.57838C11.5786 6.82823 12 5.81082 12 4.74995C12 3.68909 11.5786 2.67167 10.8284 1.92152C10.0783 1.17138 9.06087 0.749952 8 0.749952C6.93913 0.749952 5.92172 1.17138 5.17157 1.92152C4.42143 2.67167 4 3.68909 4 4.74995C4 5.81082 4.42143 6.82823 5.17157 7.57838C5.92172 8.32852 6.93913 8.74995 8 8.74995ZM0 16.25C0 18.735 0 20.75 8 20.75C16 20.75 16 18.735 16 16.25C16 13.765 12.418 11.75 8 11.75C3.582 11.75 0 13.765 0 16.25Z" fill="var(--fill-0, #3C77FF)"/>
</svg>
