<svg preserveAspectRatio="none" width="100%" height="100%" overflow="visible" style="display: block;" viewBox="0 0 22 16" fill="none" xmlns="http://www.w3.org/2000/svg">
<path id="Vector" fill-rule="evenodd" clip-rule="evenodd" d="M10.41 1.5C9.57399 1.5 9.03599 2.092 9.03599 2.66C9.03599 2.85891 8.95698 3.04968 8.81632 3.19033C8.67567 3.33098 8.48491 3.41 8.28599 3.41C8.08708 3.41 7.89632 3.33098 7.75566 3.19033C7.61501 3.04968 7.53599 2.85891 7.53599 2.66C7.53599 1.117 8.89999 0 10.41 0C11.92 0 13.284 1.117 13.284 2.66C13.284 3.34 13.036 3.974 12.594 4.454C12.454 4.607 12.3 4.759 12.159 4.899L12.085 4.971C11.9319 5.11972 11.7847 5.27451 11.644 5.435C11.5692 5.52134 11.5007 5.6129 11.439 5.709C12.0164 5.81646 12.5657 6.04108 13.053 6.369L20.486 11.379C21.436 12.019 21.693 13.076 21.363 13.967C21.038 14.843 20.172 15.5 19.047 15.5H2.45199C1.33999 15.5 0.477994 14.855 0.145994 13.99C-0.192006 13.11 0.0459944 12.059 0.973994 11.407L8.06899 6.415C8.59853 6.04402 9.2049 5.79724 9.84299 5.693C9.94799 5.186 10.236 4.775 10.501 4.463C10.673 4.261 10.861 4.072 11.03 3.905L11.11 3.825C11.253 3.685 11.377 3.562 11.49 3.439C11.672 3.241 11.784 2.971 11.784 2.659C11.784 2.092 11.246 1.5 10.41 1.5ZM12.215 7.612C11.7249 7.2873 11.1478 7.11921 10.56 7.13C9.97826 7.13351 9.41102 7.31191 8.93199 7.642L1.83699 12.633C1.49099 12.876 1.44599 13.191 1.54699 13.452C1.65199 13.727 1.94999 14 2.45199 14H19.047C19.556 14 19.853 13.723 19.957 13.445C20.054 13.181 20.004 12.863 19.647 12.623L12.215 7.612Z" fill="var(--fill-0, #FF334B)"/>
</svg>
