<svg preserveAspectRatio="none" width="100%" height="100%" overflow="visible" style="display: block;" viewBox="0 0 20 20" fill="none" xmlns="http://www.w3.org/2000/svg">
<path id="Vector" d="M2.046 3.492L3.493 2.045C4.856 0.682 5.538 0 6.385 0C7.232 0 7.915 0.682 9.278 2.045L6.868 4.455L2.046 9.277C0.682996 7.913 0.000995613 7.23 0.000995613 6.384C0.000995613 5.538 0.682996 4.855 2.046 3.492ZM17.956 16.508L16.509 17.955C15.146 19.318 14.464 20 13.617 20C12.769 20 12.087 19.318 10.724 17.955L15.545 13.134L17.955 10.724C19.32 12.086 20.001 12.767 20.001 13.615C20.001 14.463 19.319 15.145 17.956 16.508ZM9.401 16.161L16.797 8.765C15.5528 8.24522 14.4227 7.4862 13.471 6.531C12.5153 5.57905 11.756 4.44865 11.236 3.204L3.84 10.6C3.263 11.177 2.974 11.466 2.726 11.784C2.43339 12.1595 2.18226 12.5655 1.977 12.995C1.804 13.359 1.675 13.747 1.417 14.521L0.0549955 18.604C-0.00769076 18.7909 -0.0169912 18.9917 0.0281393 19.1836C0.0732699 19.3756 0.171042 19.5511 0.310467 19.6905C0.449892 19.83 0.625441 19.9277 0.817383 19.9729C1.00932 20.018 1.21005 20.0087 1.397 19.946L5.48 18.584C6.255 18.326 6.642 18.197 7.006 18.024C7.43733 17.8187 7.841 17.569 8.217 17.275C8.535 17.027 8.824 16.738 9.401 16.161ZM18.849 6.713C19.5864 5.97557 20.0007 4.97539 20.0007 3.9325C20.0007 2.88961 19.5864 1.88943 18.849 1.152C18.1116 0.414566 17.1114 0.000279196 16.0685 0.000279188C15.0256 0.00027918 14.0254 0.414566 13.288 1.152L12.401 2.039L12.439 2.15C12.876 3.40078 13.5913 4.53599 14.531 5.47C15.4929 6.43782 16.6679 7.16724 17.962 7.6L18.849 6.713Z" fill="var(--fill-0, #FF6CF1)"/>
</svg>
