<svg preserveAspectRatio="none" width="100%" height="100%" overflow="visible" style="display: block;" viewBox="0 0 20 10" fill="none" xmlns="http://www.w3.org/2000/svg">
<path id="Vector" d="M20 7V3C20 2.068 20 1.602 19.848 1.235C19.7475 0.99218 19.6001 0.771551 19.4143 0.585723C19.2284 0.399896 19.0078 0.252513 18.765 0.152C18.398 -4.47035e-08 17.932 0 17 0C16.068 0 15.602 -4.47035e-08 15.235 0.152C14.9922 0.252513 14.7716 0.399896 14.5857 0.585723C14.3999 0.771551 14.2525 0.99218 14.152 1.235C14 1.602 14 2.568 14 3.5H6C6 2.568 6 1.602 5.848 1.235C5.74749 0.99218 5.6001 0.771551 5.41428 0.585723C5.22845 0.399896 5.00782 0.252513 4.765 0.152C4.398 -4.47035e-08 3.932 0 3 0C2.068 0 1.602 -4.47035e-08 1.235 0.152C0.992181 0.252513 0.771551 0.399896 0.585723 0.585723C0.399896 0.771551 0.252513 0.99218 0.152 1.235C-4.47035e-08 1.602 0 2.068 0 3V7C0 7.932 -4.47035e-08 8.398 0.152 8.765C0.252513 9.00782 0.399896 9.22845 0.585723 9.41428C0.771551 9.6001 0.992181 9.74749 1.235 9.848C1.602 10 2.068 10 3 10C3.932 10 4.398 10 4.765 9.848C5.00782 9.74749 5.22845 9.6001 5.41428 9.41428C5.6001 9.22845 5.74749 9.00782 5.848 8.765C6 8.398 6 7.432 6 6.5H14C14 7.432 14 8.398 14.152 8.765C14.2525 9.00782 14.3999 9.22845 14.5857 9.41428C14.7716 9.6001 14.9922 9.74749 15.235 9.848C15.602 10 16.068 10 17 10C17.932 10 18.398 10 18.765 9.848C19.0078 9.74749 19.2284 9.6001 19.4143 9.41428C19.6001 9.22845 19.7475 9.00782 19.848 8.765C20 8.398 20 7.932 20 7Z" fill="var(--fill-0, #0DAE30)"/>
</svg>
