<svg preserveAspectRatio="none" width="100%" height="100%" overflow="visible" style="display: block;" viewBox="0 0 15 16" fill="none" xmlns="http://www.w3.org/2000/svg">
<path id="Vector" fill-rule="evenodd" clip-rule="evenodd" d="M13.83 8.71499L13.312 10.647C12.707 12.902 12.405 14.03 11.72 14.761C11.1795 15.3382 10.48 15.7422 9.70999 15.922C9.61333 15.9447 9.51499 15.962 9.41499 15.974C8.49999 16.087 7.38299 15.788 5.35099 15.244C3.09599 14.639 1.96799 14.337 1.23699 13.652C0.659656 13.1112 0.255628 12.4114 0.0759935 11.641C-0.152007 10.665 0.149993 9.53799 0.754993 7.28299L1.27199 5.35099L1.51599 4.44599C1.97099 2.77999 2.27699 1.86299 2.86399 1.23599C3.40464 0.659193 4.10408 0.255534 4.87399 0.0759935C5.84999 -0.152007 6.97799 0.149994 9.23399 0.754994C11.488 1.35899 12.616 1.66099 13.347 2.34499C13.9245 2.88605 14.3285 3.58625 14.508 4.35699C14.736 5.33299 14.434 6.45999 13.83 8.71499ZM4.05099 7.80499C4.07652 7.70984 4.12054 7.62065 4.18054 7.54251C4.24054 7.46437 4.31535 7.39883 4.40069 7.34961C4.48604 7.30039 4.58024 7.26847 4.67792 7.25566C4.7756 7.24286 4.87485 7.24943 4.96999 7.27499L9.79999 8.56999C9.89765 8.59315 9.98966 8.63567 10.0706 8.69503C10.1515 8.7544 10.2197 8.8294 10.2711 8.9156C10.3225 9.00179 10.3561 9.09743 10.3699 9.19684C10.3836 9.29625 10.3773 9.39742 10.3513 9.49434C10.3252 9.59127 10.28 9.68198 10.2183 9.76111C10.1565 9.84024 10.0795 9.90617 9.99186 9.955C9.90418 10.0038 9.80759 10.0346 9.70781 10.0454C9.60804 10.0562 9.5071 10.0469 9.41099 10.018L4.58099 8.72399C4.38904 8.67243 4.22541 8.54679 4.12603 8.37467C4.02666 8.20254 3.99967 7.99701 4.05099 7.80499ZM3.27499 10.704C3.32655 10.512 3.4522 10.3484 3.62432 10.249C3.79645 10.1497 4.00098 10.1227 4.19299 10.174L7.09099 10.951C7.18911 10.9736 7.28167 11.0158 7.36314 11.075C7.44461 11.1342 7.51333 11.2092 7.56519 11.2955C7.61706 11.3818 7.65101 11.4777 7.66503 11.5774C7.67905 11.6771 7.67284 11.7786 7.64677 11.8759C7.62071 11.9732 7.57532 12.0642 7.51333 12.1435C7.45133 12.2229 7.37398 12.2889 7.28591 12.3378C7.19783 12.3866 7.10083 12.4172 7.00068 12.4277C6.90053 12.4382 6.79929 12.4284 6.70299 12.399L3.80499 11.623C3.70984 11.5975 3.62065 11.5534 3.54251 11.4934C3.46437 11.4334 3.39883 11.3586 3.34961 11.2733C3.30039 11.1879 3.26847 11.0937 3.25566 10.9961C3.24286 10.8984 3.24943 10.7991 3.27499 10.704Z" fill="var(--fill-0, #0DAE30)"/>
</svg>
