<svg preserveAspectRatio="none" width="100%" height="100%" overflow="visible" style="display: block;" viewBox="0 0 16 18" fill="none" xmlns="http://www.w3.org/2000/svg">
<path id="Vector" d="M4.75736 16.4178C5.14415 16.913 5.63704 17.3128 6.19878 17.5868C6.76052 17.8609 7.37644 18.0022 8 18C8.62356 18.0022 9.23948 17.8609 9.80122 17.5868C10.363 17.3128 10.8558 16.913 11.2426 16.4178C9.09069 16.7127 6.90931 16.7127 4.75736 16.4178ZM14 6.29999V6.93359C14 7.69409 14.2133 8.43749 14.6151 9.07019L15.5999 10.6209C16.4986 12.0375 15.8124 13.9626 14.2488 14.4099C10.1633 15.5814 5.83672 15.5814 1.75115 14.4099C0.187609 13.9626 -0.498608 12.0375 0.400053 10.6209L1.38493 9.07019C1.78779 8.43226 2.00156 7.69077 2.00093 6.93359V6.29999C2.00093 2.8206 4.68713 0 8 0C11.3129 0 14 2.8206 14 6.29999Z" fill="var(--fill-0, #1E1E1E)"/>
</svg>
