<svg preserveAspectRatio="none" width="100%" height="100%" overflow="visible" style="display: block;" viewBox="0 0 20 20" fill="none" xmlns="http://www.w3.org/2000/svg">
<path id="Vector" fill-rule="evenodd" clip-rule="evenodd" d="M2.82934 2.81902C6.62434 -0.970979 12.7943 -0.930979 16.6123 2.88802C20.4323 6.70802 20.4723 12.881 16.6763 16.676C12.8803 20.471 6.70834 20.432 2.88834 16.612C1.81371 15.542 1.00177 14.2375 0.516293 12.8008C0.0308133 11.3642 -0.114988 9.83453 0.0903395 8.33202C0.117259 8.13483 0.221409 7.95641 0.379877 7.83602C0.538345 7.71562 0.738151 7.6631 0.93534 7.69002C1.13253 7.71694 1.31095 7.82109 1.43134 7.97956C1.55174 8.13803 1.60426 8.33783 1.57734 8.53502C1.40302 9.80833 1.52642 11.1047 1.93782 12.3223C2.34923 13.5399 3.03744 14.6454 3.94834 15.552C7.19334 18.796 12.4163 18.815 15.6163 15.616C18.8153 12.416 18.7963 7.19302 15.5523 3.94802C12.3093 0.706021 7.08934 0.685022 3.88934 3.88002L4.63734 3.88302C4.73583 3.88348 4.83327 3.90334 4.92409 3.94145C5.0149 3.97957 5.09733 4.0352 5.16664 4.10517C5.23596 4.17514 5.29082 4.25807 5.32809 4.34924C5.36536 4.44041 5.3843 4.53803 5.38384 4.63652C5.38338 4.73501 5.36353 4.83245 5.32541 4.92327C5.28729 5.01409 5.23166 5.09651 5.16169 5.16583C5.09173 5.23515 5.00879 5.29 4.91762 5.32727C4.82645 5.36454 4.72883 5.38348 4.63034 5.38302L2.08434 5.37102C1.88664 5.36997 1.69735 5.2909 1.55765 5.15101C1.41795 5.01112 1.33913 4.82172 1.33834 4.62402L1.32534 2.08002C1.32481 1.98153 1.34369 1.8839 1.3809 1.7927C1.4181 1.70151 1.47291 1.61854 1.54218 1.54852C1.61145 1.4785 1.69384 1.42282 1.78463 1.38464C1.87542 1.34647 1.97285 1.32655 2.07134 1.32602C2.16983 1.3255 2.26746 1.34438 2.35866 1.38158C2.44985 1.41879 2.53283 1.47359 2.60284 1.54286C2.67286 1.61214 2.72854 1.69452 2.76672 1.78531C2.80489 1.87611 2.82481 1.97353 2.82534 2.07202L2.82934 2.81902ZM9.74934 4.99902C9.94825 4.99902 10.139 5.07804 10.2797 5.21869C10.4203 5.35934 10.4993 5.55011 10.4993 5.74902V9.43902L12.7803 11.719C12.852 11.7882 12.9092 11.8709 12.9485 11.9624C12.9879 12.0539 13.0086 12.1523 13.0095 12.2519C13.0104 12.3514 12.9915 12.4502 12.9538 12.5424C12.9162 12.6346 12.8605 12.7184 12.7901 12.7888C12.7198 12.8593 12.636 12.915 12.5439 12.9527C12.4517 12.9905 12.353 13.0095 12.2534 13.0087C12.1538 13.0079 12.0554 12.9872 11.9639 12.948C11.8723 12.9087 11.7896 12.8516 11.7203 12.78L9.00034 10.06V5.75002C9.00034 5.55111 9.07936 5.36034 9.22001 5.21969C9.36066 5.07904 9.55143 5.00002 9.75034 5.00002" fill="var(--fill-0, #FF6CF1)"/>
</svg>
