<svg preserveAspectRatio="none" width="100%" height="100%" overflow="visible" style="display: block;" viewBox="0 0 16 11" fill="none" xmlns="http://www.w3.org/2000/svg">
<g id="Union">
<path fill-rule="evenodd" clip-rule="evenodd" d="M9.92285 8.4209C10.1934 8.42101 10.455 8.52287 10.6494 8.70703C10.8443 8.89166 10.9561 9.14511 10.9561 9.41113C10.9559 9.67698 10.8442 9.92973 10.6494 10.1143C10.455 10.2984 10.1934 10.4003 9.92285 10.4004H5.47754C5.20702 10.4003 4.94539 10.2984 4.75098 10.1143C4.55623 9.92973 4.44445 9.67698 4.44434 9.41113C4.44434 9.14511 4.5561 8.89166 4.75098 8.70703C4.94538 8.52287 5.20703 8.42101 5.47754 8.4209H9.92285Z" fill="var(--fill-0, #1E1E1E)"/>
<path fill-rule="evenodd" clip-rule="evenodd" d="M12.1445 4.21094C12.4152 4.21094 12.6766 4.31281 12.8711 4.49707C13.066 4.6817 13.1777 4.93417 13.1777 5.2002C13.1777 5.46622 13.066 5.7187 12.8711 5.90332C12.6766 6.08758 12.4152 6.18945 12.1445 6.18945H3.25586C2.9852 6.18945 2.72381 6.08758 2.5293 5.90332C2.33442 5.7187 2.22266 5.46622 2.22266 5.2002C2.22266 4.93417 2.33442 4.68169 2.5293 4.49707C2.72381 4.31281 2.9852 4.21094 3.25586 4.21094H12.1445ZM2.66602 4.6416C2.6465 4.66009 2.62769 4.67917 2.61035 4.69922L2.61133 4.7002C2.62869 4.68012 2.64648 4.66012 2.66602 4.6416Z" fill="var(--fill-0, #1E1E1E)"/>
<path fill-rule="evenodd" clip-rule="evenodd" d="M14.3672 0C14.6377 8.16241e-05 14.8993 0.101934 15.0938 0.286133C15.2885 0.470663 15.4003 0.723388 15.4004 0.989258C15.4004 1.25528 15.2886 1.50873 15.0938 1.69336C14.8993 1.87751 14.6377 1.97941 14.3672 1.97949H1.0332C0.762685 1.97941 0.501068 1.87751 0.306641 1.69336C0.111759 1.50873 0 1.25528 0 0.989258C0.000114876 0.723387 0.111859 0.470662 0.306641 0.286133C0.501076 0.101934 0.76265 8.15346e-05 1.0332 0H14.3672Z" fill="var(--fill-0, #1E1E1E)"/>
</g>
</svg>
