<svg preserveAspectRatio="none" width="100%" height="100%" overflow="visible" style="display: block;" viewBox="0 0 17 19" fill="none" xmlns="http://www.w3.org/2000/svg">
<path id="Union" d="M1.84146 14.1179C2.1456 13.9405 2.53616 14.0432 2.71353 14.3474C3.41639 15.5524 4.49071 16.4642 5.81607 17.0554C6.13752 17.1989 6.28271 17.5757 6.13931 17.8972C5.99585 18.2184 5.61886 18.3625 5.29751 18.2195C3.75705 17.5324 2.46457 16.4508 1.61196 14.989C1.43498 14.685 1.53774 14.2953 1.84146 14.1179ZM6.35122 1.55637C5.82598 1.85641 5.72569 2.38002 5.88833 2.68918L5.90005 2.70969L8.04654 6.39133H8.04556C8.13073 6.53733 8.15393 6.71126 8.11099 6.87473C8.06796 7.03823 7.96208 7.17818 7.81607 7.2634C7.67007 7.34857 7.49614 7.37275 7.33267 7.32981C7.16912 7.28677 7.02921 7.17999 6.944 7.03391L7.42935 6.75071L6.94497 7.03293L4.79849 3.35227L4.79751 3.35324C4.79344 3.34627 4.78976 3.33875 4.78579 3.33176L4.08267 2.12473L4.62368 1.80832L4.08169 2.12473C3.8998 1.81279 3.3696 1.62371 2.83071 1.93137C2.29452 2.23813 2.20028 2.77864 2.37857 3.08469L4.16763 6.15403L5.60025 8.60715H5.59927C5.64143 8.67942 5.669 8.75961 5.68032 8.8425C5.69163 8.92548 5.68601 9.01054 5.6647 9.09153C5.64337 9.17232 5.60687 9.24864 5.5563 9.31516C5.50569 9.38169 5.44197 9.43708 5.36978 9.47922C5.29745 9.52142 5.2174 9.54897 5.13443 9.56028C5.05155 9.57156 4.96728 9.56688 4.88638 9.54563C4.80542 9.52432 4.72939 9.48691 4.66275 9.43625C4.62941 9.41091 4.59857 9.3825 4.57095 9.35129L4.49771 9.24973L3.06607 6.79563L3.06118 6.78782C2.8751 6.48055 2.34959 6.29727 1.81607 6.60227C1.2789 6.9091 1.18546 7.44958 1.36392 7.75559L4.58267 13.278C5.95027 15.6231 9.32528 16.3839 12.1872 14.7488C15.0483 13.1142 16.0641 9.84954 14.6999 7.50949L12.5534 3.82785L13.654 3.18723L15.8014 6.86692L15.9606 7.15793C17.5067 10.1965 16.0521 14.0089 12.8209 15.8552C9.48725 17.7609 5.27643 16.9976 3.48208 13.9206L0.262356 8.39817C-0.349542 7.34937 0.170979 6.07376 1.18228 5.49485C1.47688 5.32661 1.80212 5.22465 2.12954 5.18918L1.27798 3.72727C0.666241 2.67852 1.18668 1.40284 2.1979 0.823948C3.09141 0.312945 4.26198 0.405628 4.94204 1.155C5.14175 0.871516 5.40689 0.626957 5.71841 0.448948L6.35122 1.55637ZM5.71841 0.448948C6.72904 -0.128879 8.09521 0.0634361 8.70376 1.10715L9.92154 3.19699C10.1179 2.92967 10.372 2.69811 10.6696 2.52805C11.6802 1.95103 13.0464 2.14337 13.6549 3.18625L12.5534 3.82785C12.3715 3.51505 11.8404 3.32777 11.3024 3.63547C10.7659 3.9422 10.6722 4.48279 10.8502 4.78879L12.2809 7.24192C12.3233 7.3146 12.3507 7.3958 12.362 7.47922C12.3731 7.5625 12.368 7.64707 12.3463 7.72824C12.3246 7.80956 12.2873 7.88615 12.236 7.95285C12.1847 8.01949 12.1205 8.07511 12.0475 8.11692L11.8122 8.26535C10.6899 9.04547 10.3699 10.376 10.9069 11.2995H10.9079C10.9501 11.3719 10.9776 11.4519 10.9889 11.5349C11.0002 11.6178 10.9955 11.702 10.9743 11.7829C10.953 11.8639 10.9156 11.9399 10.8649 12.0066C10.8142 12.0732 10.7507 12.1294 10.6784 12.1716C10.6062 12.2136 10.5267 12.2413 10.444 12.2527C10.361 12.264 10.276 12.2583 10.195 12.237C10.1141 12.2157 10.0379 12.1792 9.97134 12.1286C9.93802 12.1033 9.90715 12.0749 9.87954 12.0437L9.8063 11.9421L9.71743 11.779C8.94708 10.2653 9.52233 8.44943 10.8805 7.3718L9.74868 5.43137L7.6022 1.74875C7.4203 1.4368 6.88927 1.24854 6.35122 1.55539L5.71841 0.448948ZM10.5172 0.182346C12.1647 -0.286264 13.8789 0.160947 15.0719 1.37864C15.3179 1.63014 15.3135 2.03373 15.0622 2.28C14.8108 2.52611 14.4072 2.5223 14.1608 2.27121C13.2985 1.3911 12.0693 1.06662 10.8659 1.40891C10.5274 1.50498 10.1752 1.30779 10.0788 0.969456C9.98265 0.630935 10.1788 0.278687 10.5172 0.182346Z" fill="var(--fill-0, #1E1E1E)"/>
</svg>
