<svg preserveAspectRatio="none" width="100%" height="100%" overflow="visible" style="display: block;" viewBox="0 0 18 17" fill="none" xmlns="http://www.w3.org/2000/svg">
<path id="Vector" fill-rule="evenodd" clip-rule="evenodd" d="M11.5116 0H13.186C14.765 0 15.5537 -4.88327e-08 16.0443 0.480096C16.5349 0.960193 16.5349 1.73195 16.5349 3.27711V15.7711H17.3721C17.5386 15.7711 17.6983 15.8358 17.8161 15.9511C17.9338 16.0663 18 16.2226 18 16.3855C18 16.5485 17.9338 16.7048 17.8161 16.82C17.6983 16.9353 17.5386 17 17.3721 17H0.627907C0.461376 17 0.301665 16.9353 0.18391 16.82C0.0661543 16.7048 0 16.5485 0 16.3855C0 16.2226 0.0661543 16.0663 0.18391 15.9511C0.301665 15.8358 0.461376 15.7711 0.627907 15.7711H1.46512V5.73494C1.46512 4.18978 1.46512 3.41802 1.95572 2.93793C2.44633 2.45783 3.23498 2.45783 4.81395 2.45783H8.16279C9.74177 2.45783 10.5304 2.45783 11.021 2.93793C11.5116 3.41802 11.5116 4.18978 11.5116 5.73494V15.7711H12.7674V5.6612C12.7674 4.95253 12.7674 4.30202 12.6946 3.77359C12.6151 3.19108 12.4267 2.57499 11.9093 2.06949C11.3919 1.56236 10.7623 1.37802 10.1679 1.29937C9.6346 1.22973 8.98074 1.22892 8.26828 1.22892C8.3386 0.911855 8.45665 0.671807 8.6534 0.480096C9.144 -4.88327e-08 9.93265 0 11.5116 0ZM3.34884 4.91566C3.34884 4.7527 3.41499 4.59641 3.53275 4.48118C3.6505 4.36594 3.81021 4.3012 3.97674 4.3012H9C9.16653 4.3012 9.32624 4.36594 9.444 4.48118C9.56175 4.59641 9.62791 4.7527 9.62791 4.91566C9.62791 5.07863 9.56175 5.23492 9.444 5.35015C9.32624 5.46538 9.16653 5.53012 9 5.53012H3.97674C3.81021 5.53012 3.6505 5.46538 3.53275 5.35015C3.41499 5.23492 3.34884 5.07863 3.34884 4.91566ZM3.34884 7.37349C3.34884 7.21053 3.41499 7.05424 3.53275 6.93901C3.6505 6.82377 3.81021 6.75904 3.97674 6.75904H9C9.16653 6.75904 9.32624 6.82377 9.444 6.93901C9.56175 7.05424 9.62791 7.21053 9.62791 7.37349C9.62791 7.53646 9.56175 7.69275 9.444 7.80798C9.32624 7.92321 9.16653 7.98795 9 7.98795H3.97674C3.81021 7.98795 3.6505 7.92321 3.53275 7.80798C3.41499 7.69275 3.34884 7.53646 3.34884 7.37349ZM3.34884 9.83133C3.34884 9.66836 3.41499 9.51207 3.53275 9.39684C3.6505 9.28161 3.81021 9.21687 3.97674 9.21687H9C9.16653 9.21687 9.32624 9.28161 9.444 9.39684C9.56175 9.51207 9.62791 9.66836 9.62791 9.83133C9.62791 9.99429 9.56175 10.1506 9.444 10.2658C9.32624 10.381 9.16653 10.4458 9 10.4458H3.97674C3.81021 10.4458 3.6505 10.381 3.53275 10.2658C3.41499 10.1506 3.34884 9.99429 3.34884 9.83133ZM6.48837 13.3133C6.6549 13.3133 6.81461 13.378 6.93237 13.4932C7.05012 13.6085 7.11628 13.7647 7.11628 13.9277V15.7711H5.86046V13.9277C5.86046 13.7647 5.92662 13.6085 6.04438 13.4932C6.16213 13.378 6.32184 13.3133 6.48837 13.3133Z" fill="var(--fill-0, #1E1E1E)"/>
</svg>
