<svg preserveAspectRatio="none" width="100%" height="100%" overflow="visible" style="display: block;" viewBox="0 0 20 15" fill="none" xmlns="http://www.w3.org/2000/svg">
<path id="Vector" fill-rule="evenodd" clip-rule="evenodd" d="M8.66708 1.134L8.16508 0.779C7.44871 0.272037 6.59269 -0.000144454 5.71508 5.7515e-08H5.10308C4.69808 5.7515e-08 4.29008 0.0249999 3.90908 0.16C1.52608 1.006 -0.112919 4.095 0.00608128 11.103C0.0300813 12.515 0.360081 14.075 1.63408 14.684C2.06867 14.8929 2.54487 15.001 3.02708 15C3.56908 15.0089 4.10154 14.8568 4.55708 14.563C4.96708 14.295 5.32708 13.947 5.68708 13.599C6.13108 13.169 6.57508 12.739 7.11108 12.461C7.69497 12.1579 8.34322 11.9998 9.00108 12H11.0001C11.6581 12 12.3061 12.158 12.8901 12.46C13.4261 12.739 13.8701 13.169 14.3151 13.599C14.6751 13.947 15.0351 14.295 15.4431 14.563C15.8331 14.819 16.3381 15 16.9741 15C17.4563 15.001 17.9325 14.8929 18.3671 14.684C19.6411 14.075 19.9711 12.514 19.9951 11.103C20.1141 4.095 18.4751 1.006 16.0921 0.161C15.7101 0.0249998 15.3001 5.7515e-08 14.8971 5.7515e-08H14.2851C13.4074 0.000147917 12.5513 0.272682 11.8351 0.78L11.3331 1.134C10.9432 1.40949 10.4775 1.55741 10.0001 1.55741C9.52267 1.55741 9.05698 1.40949 8.66708 1.134ZM14.7501 4C14.949 4 15.1398 4.07902 15.2804 4.21967C15.4211 4.36032 15.5001 4.55109 15.5001 4.75C15.5001 4.94891 15.4211 5.13968 15.2804 5.28033C15.1398 5.42098 14.949 5.5 14.7501 5.5C14.5512 5.5 14.3604 5.42098 14.2198 5.28033C14.0791 5.13968 14.0001 4.94891 14.0001 4.75C14.0001 4.55109 14.0791 4.36032 14.2198 4.21967C14.3604 4.07902 14.5512 4 14.7501 4ZM5.50008 4.25C5.69899 4.25 5.88976 4.32902 6.03041 4.46967C6.17106 4.61032 6.25008 4.80109 6.25008 5V5.75H7.00008C7.19899 5.75 7.38976 5.82902 7.53041 5.96967C7.67106 6.11032 7.75008 6.30109 7.75008 6.5C7.75008 6.69891 7.67106 6.88968 7.53041 7.03033C7.38976 7.17098 7.19899 7.25 7.00008 7.25H6.25008V8C6.25008 8.19891 6.17106 8.38968 6.03041 8.53033C5.88976 8.67098 5.69899 8.75 5.50008 8.75C5.30117 8.75 5.1104 8.67098 4.96975 8.53033C4.8291 8.38968 4.75008 8.19891 4.75008 8V7.25H4.00008C3.80117 7.25 3.6104 7.17098 3.46975 7.03033C3.3291 6.88968 3.25008 6.69891 3.25008 6.5C3.25008 6.30109 3.3291 6.11032 3.46975 5.96967C3.6104 5.82902 3.80117 5.75 4.00008 5.75H4.75008V5C4.75008 4.80109 4.8291 4.61032 4.96975 4.46967C5.1104 4.32902 5.30117 4.25 5.50008 4.25ZM17.0001 6.25C17.0001 6.44891 16.9211 6.63968 16.7804 6.78033C16.6398 6.92098 16.449 7 16.2501 7C16.0512 7 15.8604 6.92098 15.7198 6.78033C15.5791 6.63968 15.5001 6.44891 15.5001 6.25C15.5001 6.05109 15.5791 5.86032 15.7198 5.71967C15.8604 5.57902 16.0512 5.5 16.2501 5.5C16.449 5.5 16.6398 5.57902 16.7804 5.71967C16.9211 5.86032 17.0001 6.05109 17.0001 6.25ZM13.2501 7C13.449 7 13.6398 6.92098 13.7804 6.78033C13.9211 6.63968 14.0001 6.44891 14.0001 6.25C14.0001 6.05109 13.9211 5.86032 13.7804 5.71967C13.6398 5.57902 13.449 5.5 13.2501 5.5C13.0512 5.5 12.8604 5.57902 12.7198 5.71967C12.5791 5.86032 12.5001 6.05109 12.5001 6.25C12.5001 6.44891 12.5791 6.63968 12.7198 6.78033C12.8604 6.92098 13.0512 7 13.2501 7ZM15.5001 7.75C15.5001 7.55109 15.4211 7.36032 15.2804 7.21967C15.1398 7.07902 14.949 7 14.7501 7C14.5512 7 14.3604 7.07902 14.2198 7.21967C14.0791 7.36032 14.0001 7.55109 14.0001 7.75C14.0001 7.94891 14.0791 8.13968 14.2198 8.28033C14.3604 8.42098 14.5512 8.5 14.7501 8.5C14.949 8.5 15.1398 8.42098 15.2804 8.28033C15.4211 8.13968 15.5001 7.94891 15.5001 7.75Z" fill="var(--fill-0, #FF334B)"/>
</svg>
