<svg preserveAspectRatio="none" width="100%" height="100%" overflow="visible" style="display: block;" viewBox="0 0 20 20" fill="none" xmlns="http://www.w3.org/2000/svg">
<path id="Vector" fill-rule="evenodd" clip-rule="evenodd" d="M10 20C15.523 20 20 15.523 20 10C20 4.477 15.523 0 10 0C4.477 0 0 4.477 0 10C0 15.523 4.477 20 10 20ZM6.397 13.553C6.45572 13.4738 6.52948 13.407 6.61405 13.3564C6.69862 13.3057 6.79235 13.2722 6.88987 13.2578C6.98739 13.2434 7.08679 13.2484 7.18239 13.2725C7.27799 13.2965 7.3679 13.3392 7.447 13.398C8.175 13.938 9.054 14.25 10 14.25C10.946 14.25 11.825 13.937 12.553 13.398C12.6319 13.3366 12.7222 13.2916 12.8187 13.2657C12.9151 13.2397 13.0158 13.2333 13.1148 13.2468C13.2138 13.2603 13.3092 13.2934 13.3952 13.3442C13.4812 13.3951 13.5562 13.4626 13.6158 13.5428C13.6753 13.623 13.7183 13.7143 13.742 13.8114C13.7658 13.9084 13.77 14.0092 13.7543 14.1079C13.7385 14.2066 13.7033 14.3011 13.6505 14.386C13.5977 14.4708 13.5285 14.5443 13.447 14.602C12.4516 15.3459 11.2426 15.7485 10 15.75C8.75736 15.7485 7.54841 15.3459 6.553 14.602C6.39323 14.4836 6.28704 14.3065 6.25778 14.1098C6.22853 13.9131 6.2786 13.7128 6.397 13.553ZM14 8.5C14 9.328 13.552 10 13 10C12.448 10 12 9.328 12 8.5C12 7.672 12.448 7 13 7C13.552 7 14 7.672 14 8.5ZM7 10C7.552 10 8 9.328 8 8.5C8 7.672 7.552 7 7 7C6.448 7 6 7.672 6 8.5C6 9.328 6.448 10 7 10Z" fill="var(--fill-0, #0DAE30)"/>
</svg>
