<svg preserveAspectRatio="none" width="100%" height="100%" overflow="visible" style="display: block;" viewBox="0 0 16 15" fill="none" xmlns="http://www.w3.org/2000/svg">
<g id="Icon">
<path id="Vector" d="M0 1.6C0 0.8456 -2.38419e-08 0.4688 0.2344 0.2344C0.4688 -2.38419e-08 0.8456 0 1.6 0H14.4C15.1544 0 15.5312 -2.38419e-08 15.7656 0.2344C16 0.4688 16 0.8456 16 1.6C16 2.3544 16 2.7312 15.7656 2.9656C15.5312 3.2 15.1544 3.2 14.4 3.2H1.6C0.8456 3.2 0.4688 3.2 0.2344 2.9656C-2.38419e-08 2.7312 0 2.3544 0 1.6Z" fill="var(--fill-0, #1E1E1E)"/>
<path id="Vector_2" fill-rule="evenodd" clip-rule="evenodd" d="M14.4552 4.39999L14.8 4.39839V7.99999C14.8 11.0168 14.8 12.5256 13.8624 13.4624C12.9248 14.3992 11.4168 14.4 8.4 14.4H7.6C4.5832 14.4 3.0744 14.4 2.1376 13.4624C1.2008 12.5248 1.2 11.0168 1.2 7.99999V4.39839L1.5448 4.39999H14.4552ZM5.6 7.19999C5.6 6.82719 5.6 6.64079 5.6608 6.49359C5.74199 6.29766 5.89767 6.14199 6.0936 6.06079C6.2408 5.99999 6.4272 5.99999 6.8 5.99999H9.2C9.5728 5.99999 9.7592 5.99999 9.9064 6.06079C10.102 6.14216 10.2574 6.29781 10.3384 6.49359C10.4 6.64079 10.4 6.82719 10.4 7.19999C10.4 7.57279 10.4 7.75919 10.3392 7.90639C10.2578 8.10202 10.1022 8.25739 9.9064 8.33839C9.7592 8.39999 9.5728 8.39999 9.2 8.39999H6.8C6.4272 8.39999 6.2408 8.39999 6.0936 8.33919C5.89797 8.25783 5.74261 8.10217 5.6616 7.90639C5.6 7.75919 5.6 7.57279 5.6 7.19999Z" fill="var(--fill-0, #1E1E1E)"/>
</g>
</svg>
