<svg preserveAspectRatio="none" width="100%" height="100%" overflow="visible" style="display: block;" viewBox="0 0 20 10" fill="none" xmlns="http://www.w3.org/2000/svg">
<path id="Vector" fill-rule="evenodd" clip-rule="evenodd" d="M0.551252 0.0701798C0.66105 0.0252286 0.779033 0.00140173 0.898462 6.00087e-05C1.01789 -0.00128171 1.13643 0.0198881 1.2473 0.0623601C1.35817 0.104832 1.4592 0.167774 1.54463 0.247592C1.63006 0.327409 1.69821 0.422537 1.74518 0.527543L0.909522 0.87013L1.74609 0.527543L1.74882 0.534499L1.76791 0.573627L1.85339 0.742312C1.93159 0.891868 2.05253 1.11098 2.21711 1.37619C2.6511 2.07334 3.16004 2.72524 3.73567 3.32128C3.90819 3.49877 4.08713 3.67046 4.27216 3.83603C5.61977 5.04379 7.50295 6.0872 10.0027 6.0872C11.0045 6.09158 11.9981 5.91395 12.9306 5.56375C14.0464 5.14378 14.9802 4.51164 15.7459 3.82647C16.7699 2.89737 17.6115 1.80041 18.231 0.587539L18.2556 0.537108L18.2601 0.527543C18.3574 0.318868 18.5366 0.155182 18.7591 0.0718739C18.9816 -0.0114339 19.2294 -0.00766903 19.449 0.0823545C19.6686 0.172378 19.8423 0.341427 19.9326 0.552951C20.0229 0.764475 20.0225 1.00148 19.9314 1.21272L19.9296 1.21707L19.926 1.22402L19.916 1.24663L19.8796 1.32228C19.6777 1.72449 19.4527 2.11578 19.2058 2.49438C18.7513 3.19255 18.2305 3.8492 17.65 4.456L18.3747 5.149C18.5453 5.31204 18.6412 5.53321 18.6413 5.76387C18.6414 5.99452 18.5457 6.21576 18.3752 6.37892C18.2047 6.54208 17.9734 6.63378 17.7321 6.63386C17.4909 6.63394 17.2596 6.5424 17.0889 6.37936L16.3251 5.64897C15.7876 6.06442 15.21 6.4301 14.6001 6.74107L15.3112 7.78622C15.3783 7.88189 15.4249 7.98935 15.4481 8.10236C15.4714 8.21537 15.471 8.33168 15.4469 8.44453C15.4228 8.55738 15.3755 8.66453 15.3077 8.75974C15.2399 8.85496 15.153 8.93635 15.0521 8.99919C14.9511 9.06203 14.8381 9.10506 14.7196 9.12579C14.6011 9.14652 14.4795 9.14453 14.3618 9.11994C14.2442 9.09534 14.1328 9.04864 14.0341 8.98253C13.9355 8.91643 13.8516 8.83224 13.7872 8.73486L12.8906 7.41842C12.2732 7.59928 11.614 7.7271 10.912 7.78709V9.13049C10.912 9.3611 10.8162 9.58226 10.6456 9.74533C10.4751 9.90839 10.2438 10 10.0027 10C9.76149 10 9.5302 9.90839 9.35967 9.74533C9.18915 9.58226 9.09334 9.3611 9.09334 9.13049V7.78796C8.38862 7.7271 7.72937 7.59928 7.11377 7.41842L6.21809 8.73486C6.08361 8.92136 5.87832 9.05031 5.64591 9.09426C5.41351 9.13821 5.17234 9.09369 4.97374 8.97019C4.77513 8.84668 4.63478 8.65393 4.58255 8.43297C4.53032 8.212 4.57034 7.98027 4.69408 7.78709L5.40517 6.74107C4.76865 6.41935 4.19396 6.04546 3.6802 5.6481L2.91638 6.37849C2.74488 6.53687 2.51518 6.62452 2.27676 6.62253C2.03835 6.62055 1.81028 6.52911 1.64168 6.36789C1.47309 6.20668 1.37746 5.98859 1.37539 5.76061C1.37332 5.53263 1.46497 5.31299 1.63061 5.149L2.35533 4.456C1.71203 3.78315 1.14227 3.04924 0.654914 2.2657C0.460824 1.95269 0.281509 1.63152 0.11751 1.30315L0.0875025 1.24054L0.0784093 1.22228L0.0765907 1.2162L0.0756814 1.21446C0.0729534 1.21446 0.0729535 1.21272 0.909522 0.87013L0.0738628 1.21359C0.0266861 1.1086 0.00161242 0.995755 7.52429e-05 0.881497C-0.00146194 0.767239 0.0205675 0.653812 0.0649042 0.547701C0.109241 0.44159 0.175015 0.344876 0.258466 0.263089C0.341918 0.181301 0.441409 0.115175 0.551252 0.0701798Z" fill="var(--fill-0, #1E1E1E)"/>
</svg>
