<svg preserveAspectRatio="none" width="100%" height="100%" overflow="visible" style="display: block;" viewBox="0 0 13 11" fill="none" xmlns="http://www.w3.org/2000/svg">
<path id="Vector" d="M3.005 7.44701C2.818 5.36301 1.211 3.42101 0.43 2.71101L0 2.34101C1.7996 0.825786 4.07746 -0.00352463 6.43 1.12603e-05C8.644 1.12603e-05 10.69 0.720011 12.346 1.93601C12.58 2.64701 12.134 4.13201 11.666 4.84201C11.496 5.09901 11.112 5.41901 10.69 5.72201C9.74 6.40501 8.54 6.74201 7.93 8.00001C7.77754 8.31673 7.74796 8.67874 7.847 9.01601C7.907 9.23601 7.947 9.47501 7.947 9.70801C7.949 10.463 7.185 11.008 6.43 11C4.466 10.979 3.18 9.39601 3.005 7.44701Z" fill="var(--fill-0, #FF334B)"/>
</svg>
