<svg preserveAspectRatio="none" width="100%" height="100%" overflow="visible" style="display: block;" viewBox="0 0 22 21" fill="none" xmlns="http://www.w3.org/2000/svg">
<path id="Vector" fill-rule="evenodd" clip-rule="evenodd" d="M13.75 0H15.75C17.636 0 18.578 -5.96046e-08 19.164 0.586C19.75 1.172 19.75 2.114 19.75 4V19.25H20.75C20.9489 19.25 21.1397 19.329 21.2803 19.4697C21.421 19.6103 21.5 19.8011 21.5 20C21.5 20.1989 21.421 20.3897 21.2803 20.5303C21.1397 20.671 20.9489 20.75 20.75 20.75H0.75C0.551088 20.75 0.360322 20.671 0.21967 20.5303C0.0790177 20.3897 0 20.1989 0 20C0 19.8011 0.0790177 19.6103 0.21967 19.4697C0.360322 19.329 0.551088 19.25 0.75 19.25H1.75V7C1.75 5.114 1.75 4.172 2.336 3.586C2.922 3 3.864 3 5.75 3H9.75C11.636 3 12.578 3 13.164 3.586C13.75 4.172 13.75 5.114 13.75 7V19.25H15.25V6.91C15.25 6.045 15.25 5.251 15.163 4.606C15.068 3.895 14.843 3.143 14.225 2.526C13.607 1.907 12.855 1.682 12.145 1.586C11.508 1.501 10.727 1.5 9.876 1.5C9.96 1.113 10.101 0.82 10.336 0.586C10.922 -5.96046e-08 11.864 0 13.75 0ZM4 6C4 5.80109 4.07902 5.61032 4.21967 5.46967C4.36032 5.32902 4.55109 5.25 4.75 5.25H10.75C10.9489 5.25 11.1397 5.32902 11.2803 5.46967C11.421 5.61032 11.5 5.80109 11.5 6C11.5 6.19891 11.421 6.38968 11.2803 6.53033C11.1397 6.67098 10.9489 6.75 10.75 6.75H4.75C4.55109 6.75 4.36032 6.67098 4.21967 6.53033C4.07902 6.38968 4 6.19891 4 6ZM4 9C4 8.80109 4.07902 8.61032 4.21967 8.46967C4.36032 8.32902 4.55109 8.25 4.75 8.25H10.75C10.9489 8.25 11.1397 8.32902 11.2803 8.46967C11.421 8.61032 11.5 8.80109 11.5 9C11.5 9.19891 11.421 9.38968 11.2803 9.53033C11.1397 9.67098 10.9489 9.75 10.75 9.75H4.75C4.55109 9.75 4.36032 9.67098 4.21967 9.53033C4.07902 9.38968 4 9.19891 4 9ZM4 12C4 11.8011 4.07902 11.6103 4.21967 11.4697C4.36032 11.329 4.55109 11.25 4.75 11.25H10.75C10.9489 11.25 11.1397 11.329 11.2803 11.4697C11.421 11.6103 11.5 11.8011 11.5 12C11.5 12.1989 11.421 12.3897 11.2803 12.5303C11.1397 12.671 10.9489 12.75 10.75 12.75H4.75C4.55109 12.75 4.36032 12.671 4.21967 12.5303C4.07902 12.3897 4 12.1989 4 12ZM7.75 16.25C7.94891 16.25 8.13968 16.329 8.28033 16.4697C8.42098 16.6103 8.5 16.8011 8.5 17V19.25H7V17C7 16.8011 7.07902 16.6103 7.21967 16.4697C7.36032 16.329 7.55109 16.25 7.75 16.25Z" fill="var(--fill-0, #FF334B)"/>
</svg>
