<svg preserveAspectRatio="none" width="100%" height="100%" overflow="visible" style="display: block;" viewBox="0 0 13 19" fill="none" xmlns="http://www.w3.org/2000/svg">
<path id="Vector" d="M0.661017 0C0.83633 0 1.00446 0.0698296 1.12843 0.194127C1.25239 0.318424 1.32203 0.487008 1.32203 0.662791V2.29767L2.83797 1.99367C4.29293 1.70297 5.80076 1.84173 7.17864 2.39312L7.35844 2.4647C8.73416 3.01657 10.2483 3.11985 11.6859 2.75986C11.8418 2.72078 12.0046 2.71785 12.1618 2.75127C12.319 2.7847 12.4665 2.85361 12.5932 2.95277C12.7199 3.05193 12.8224 3.17873 12.8928 3.32354C12.9633 3.46836 13 3.62737 13 3.78851V10.2989C13 10.868 12.6131 11.3647 12.0622 11.5025L11.8736 11.5493C10.3141 11.9403 8.67134 11.8286 7.17864 11.2303C5.80102 10.6791 4.29353 10.5404 2.83885 10.8309L1.32203 11.1349V18.3372C1.32203 18.513 1.25239 18.6816 1.12843 18.8059C1.00446 18.9302 0.83633 19 0.661017 19C0.485704 19 0.317572 18.9302 0.193607 18.8059C0.0696426 18.6816 0 18.513 0 18.3372V0.662791C0 0.487008 0.0696426 0.318424 0.193607 0.194127C0.317572 0.0698296 0.485704 0 0.661017 0Z" fill="var(--fill-0, #1E1E1E)"/>
</svg>
