<svg preserveAspectRatio="none" width="100%" height="100%" overflow="visible" style="display: block;" viewBox="0 0 20 17" fill="none" xmlns="http://www.w3.org/2000/svg">
<path id="Vector" d="M3.00601 0.561L2.59401 0.209C2.56032 0.17944 2.52764 0.148756 2.49601 0.117C0.884193 1.94127 -0.00372015 4.29268 1.1716e-05 6.727C1.1716e-05 12.187 4.37701 16.627 9.81401 16.725C9.46101 15.67 9.23001 13.961 10.112 12.3C10.922 10.774 12.552 10.173 13.59 9.917C14.2662 9.75383 14.9577 9.66166 15.653 9.642H15.706C17.087 9.626 17.623 9.219 17.87 8.94C18.176 8.596 18.296 8.188 18.463 7.619L18.485 7.545C18.5799 7.2222 18.7807 6.94069 19.0549 6.74572C19.3291 6.55075 19.6609 6.45364 19.997 6.47C19.9388 4.07076 19.0162 1.77323 17.399 0C17.367 0.177 17.329 0.343 17.292 0.489C17.122 1.15 16.838 1.864 16.488 2.394C16.147 2.914 15.539 3.377 15.136 3.667C14.831 3.886 14.519 4.067 14.263 4.216L14.171 4.269C13.939 4.402 13.755 4.509 13.579 4.624C13.223 4.859 13.009 5.068 12.865 5.351C12.953 5.673 13.015 6.044 13.017 6.431C13.019 7.353 12.547 8.081 11.984 8.535C11.4167 8.98869 10.7104 9.23307 9.98401 9.227C7.03401 9.195 5.30401 6.788 5.08101 4.309C5.01601 3.588 4.69201 2.811 4.23901 2.087C3.89218 1.52967 3.47806 1.01715 3.00601 0.561Z" fill="var(--fill-0, #FF334B)"/>
</svg>
