<svg preserveAspectRatio="none" width="100%" height="100%" overflow="visible" style="display: block;" viewBox="0 0 20 20" fill="none" xmlns="http://www.w3.org/2000/svg">
<path id="Vector" fill-rule="evenodd" clip-rule="evenodd" d="M8.847 19.934C3.867 19.362 0 15.133 0 10C0 4.477 4.477 0 10 0C15.523 0 20 4.477 20 10C20 15.157 16.717 14.733 13.914 14.37C12.296 14.161 10.839 13.973 10.262 14.888C9.867 15.514 10.294 16.294 10.817 16.817C10.9724 16.9724 11.0956 17.1568 11.1797 17.3598C11.2637 17.5627 11.307 17.7803 11.307 18C11.307 18.2197 11.2637 18.4373 11.1797 18.6402C11.0956 18.8432 10.9724 19.0276 10.817 19.183C10.294 19.706 9.582 20.019 8.847 19.934ZM9.085 5C9.085 5.39782 8.92696 5.77936 8.64566 6.06066C8.36436 6.34196 7.98282 6.5 7.585 6.5C7.18718 6.5 6.80564 6.34196 6.52434 6.06066C6.24304 5.77936 6.085 5.39782 6.085 5C6.085 4.60218 6.24304 4.22064 6.52434 3.93934C6.80564 3.65804 7.18718 3.5 7.585 3.5C7.98282 3.5 8.36436 3.65804 8.64566 3.93934C8.92696 4.22064 9.085 4.60218 9.085 5ZM4.5 11C4.89782 11 5.27936 10.842 5.56066 10.5607C5.84196 10.2794 6 9.89782 6 9.5C6 9.10218 5.84196 8.72064 5.56066 8.43934C5.27936 8.15804 4.89782 8 4.5 8C4.10218 8 3.72064 8.15804 3.43934 8.43934C3.15804 8.72064 3 9.10218 3 9.5C3 9.89782 3.15804 10.2794 3.43934 10.5607C3.72064 10.842 4.10218 11 4.5 11ZM15.5 11C15.8978 11 16.2794 10.842 16.5607 10.5607C16.842 10.2794 17 9.89782 17 9.5C17 9.10218 16.842 8.72064 16.5607 8.43934C16.2794 8.15804 15.8978 8 15.5 8C15.1022 8 14.7206 8.15804 14.4393 8.43934C14.158 8.72064 14 9.10218 14 9.5C14 9.89782 14.158 10.2794 14.4393 10.5607C14.7206 10.842 15.1022 11 15.5 11ZM12.5 6.5C12.697 6.5 12.892 6.4612 13.074 6.38582C13.256 6.31044 13.4214 6.19995 13.5607 6.06066C13.6999 5.92137 13.8104 5.75601 13.8858 5.57403C13.9612 5.39204 14 5.19698 14 5C14 4.80302 13.9612 4.60796 13.8858 4.42597C13.8104 4.24399 13.6999 4.07863 13.5607 3.93934C13.4214 3.80005 13.256 3.68956 13.074 3.61418C12.892 3.5388 12.697 3.5 12.5 3.5C12.1022 3.5 11.7206 3.65804 11.4393 3.93934C11.158 4.22064 11 4.60218 11 5C11 5.39782 11.158 5.77936 11.4393 6.06066C11.7206 6.34196 12.1022 6.5 12.5 6.5Z" fill="var(--fill-0, #FEC855)"/>
</svg>
