<svg preserveAspectRatio="none" width="100%" height="100%" overflow="visible" style="display: block;" viewBox="0 0 20 20" fill="none" xmlns="http://www.w3.org/2000/svg">
<g id="Icon">
<path id="Vector" d="M18.312 10.6475L18.829 8.71546C19.433 6.46046 19.736 5.33346 19.509 4.35746C19.3291 3.58695 18.9247 2.88711 18.347 2.34646C17.616 1.66146 16.488 1.35946 14.233 0.755458C11.978 0.150458 10.85 -0.151542 9.87497 0.0754576C9.10446 0.25537 8.40462 0.659753 7.86397 1.23746C7.27697 1.86346 6.97097 2.78046 6.51597 4.44646L6.27197 5.35146L5.75497 7.28346C5.14997 9.53846 4.84797 10.6655 5.07497 11.6415C5.25488 12.412 5.65927 13.1118 6.23697 13.6525C6.96797 14.3375 8.09597 14.6395 10.351 15.2445C12.383 15.7885 13.5 16.0875 14.415 15.9745C14.515 15.9618 14.613 15.9445 14.709 15.9225C15.4792 15.7431 16.1791 15.3394 16.72 14.7625C17.405 14.0305 17.707 12.9025 18.312 10.6475Z" fill="var(--fill-0, #1E1E1E)"/>
<path id="Vector_2" d="M0.754994 12.7154L1.27199 14.6474C1.87599 16.9024 2.17899 18.0304 2.86399 18.7614C3.40464 19.3382 4.10408 19.7419 4.87399 19.9214C5.84999 20.1494 6.97799 19.8474 9.23399 19.2434C11.488 18.6394 12.616 18.3374 13.347 17.6524C13.4077 17.5951 13.4663 17.5364 13.523 17.4764C13.1824 17.4457 12.8439 17.3956 12.509 17.3264C11.813 17.1884 10.986 16.9664 10.008 16.7044L9.90099 16.6754L9.87599 16.6694C8.81199 16.3844 7.92299 16.1454 7.21299 15.8894C6.46599 15.6194 5.78799 15.2864 5.21099 14.7464C4.41731 14.0028 3.86191 13.0406 3.61499 11.9814C3.43499 11.2124 3.48699 10.4594 3.62699 9.67742C3.76099 8.92842 4.00099 8.03142 4.28899 6.95542L4.82399 4.96142L4.84199 4.89142C2.92199 5.40842 1.91099 5.71442 1.23699 6.34542C0.659486 6.88647 0.255445 7.58667 0.0759935 8.35742C-0.152007 9.33242 0.149994 10.4604 0.754994 12.7154Z" fill="var(--fill-0, #1E1E1E)"/>
</g>
</svg>
