<svg preserveAspectRatio="none" width="100%" height="100%" overflow="visible" style="display: block;" viewBox="0 0 22 20" fill="none" xmlns="http://www.w3.org/2000/svg">
<path id="Vector" d="M19 11.75C19 11.5511 18.921 11.3603 18.7803 11.2197C18.6397 11.079 18.4489 11 18.25 11H15.25C15.0511 11 14.8603 11.079 14.7197 11.2197C14.579 11.3603 14.5 11.5511 14.5 11.75V18.5H13V2.25C13 1.522 12.998 1.05 12.952 0.704C12.908 0.379 12.837 0.277 12.78 0.22C12.723 0.163 12.621 0.0920001 12.296 0.0480001C11.949 0.0020001 11.478 0 10.75 0C10.022 0 9.55 0.0020001 9.204 0.0480001C8.879 0.0920001 8.777 0.163 8.72 0.22C8.663 0.277 8.592 0.379 8.548 0.704C8.502 1.051 8.5 1.522 8.5 2.25V18.5H7V6.75C7 6.55109 6.92098 6.36032 6.78033 6.21967C6.63968 6.07902 6.44891 6 6.25 6H3.25C3.05109 6 2.86032 6.07902 2.71967 6.21967C2.57902 6.36032 2.5 6.55109 2.5 6.75V18.5H0.75C0.551088 18.5 0.360322 18.579 0.21967 18.7197C0.0790177 18.8603 0 19.0511 0 19.25C0 19.4489 0.0790177 19.6397 0.21967 19.7803C0.360322 19.921 0.551088 20 0.75 20H20.75C20.9489 20 21.1397 19.921 21.2803 19.7803C21.421 19.6397 21.5 19.4489 21.5 19.25C21.5 19.0511 21.421 18.8603 21.2803 18.7197C21.1397 18.579 20.9489 18.5 20.75 18.5H19V11.75Z" fill="var(--fill-0, #FF6CF1)"/>
</svg>
