<svg preserveAspectRatio="none" width="100%" height="100%" overflow="visible" style="display: block;" viewBox="0 0 20 20" fill="none" xmlns="http://www.w3.org/2000/svg">
<path id="Vector" fill-rule="evenodd" clip-rule="evenodd" d="M20 10C20 15.523 15.523 20 10 20C4.477 20 0 15.523 0 10C0 4.477 4.477 0 10 0C15.523 0 20 4.477 20 10ZM11.488 4.446C11.6799 4.49756 11.8436 4.6232 11.943 4.79533C12.0423 4.96745 12.0693 5.17199 12.018 5.364L9.43 15.024C9.40446 15.1191 9.36043 15.2083 9.30042 15.2864C9.24041 15.3646 9.1656 15.4301 9.08027 15.4793C8.90792 15.5787 8.70315 15.6056 8.511 15.554C8.31885 15.5024 8.15506 15.3766 8.05567 15.2043C7.95627 15.0319 7.92942 14.8271 7.981 14.635L10.57 4.976C10.6216 4.78405 10.7472 4.62042 10.9193 4.52104C11.0915 4.42166 11.296 4.39468 11.488 4.446ZM12.97 6.47C13.1106 6.32955 13.3012 6.25066 13.5 6.25066C13.6988 6.25066 13.8894 6.32955 14.03 6.47L14.239 6.678C14.874 7.313 15.404 7.843 15.768 8.32C16.152 8.824 16.422 9.356 16.422 10C16.422 10.644 16.152 11.176 15.768 11.68C15.404 12.157 14.874 12.687 14.238 13.322L14.03 13.53C13.9613 13.6037 13.8785 13.6628 13.7865 13.7038C13.6945 13.7448 13.5952 13.7668 13.4945 13.7686C13.3938 13.7704 13.2938 13.7518 13.2004 13.7141C13.107 13.6764 13.0222 13.6203 12.951 13.549C12.8797 13.4778 12.8236 13.393 12.7859 13.2996C12.7482 13.2062 12.7296 13.1062 12.7314 13.0055C12.7332 12.9048 12.7552 12.8055 12.7962 12.7135C12.8372 12.6215 12.8963 12.5387 12.97 12.47L13.141 12.298C13.823 11.616 14.28 11.158 14.575 10.77C14.858 10.4 14.922 10.184 14.922 10C14.922 9.816 14.858 9.6 14.575 9.23C14.28 8.843 13.823 8.384 13.141 7.702L12.97 7.53C12.8295 7.38937 12.7507 7.19875 12.7507 7C12.7507 6.80125 12.8295 6.61063 12.97 6.47ZM5.97 6.47C6.11217 6.33752 6.30022 6.2654 6.49452 6.26882C6.68882 6.27225 6.87421 6.35097 7.01162 6.48838C7.14903 6.62579 7.22775 6.81118 7.23118 7.00548C7.2346 7.19978 7.16248 7.38782 7.03 7.53L6.859 7.702C6.177 8.384 5.721 8.842 5.425 9.23C5.142 9.6 5.079 9.816 5.079 10C5.079 10.184 5.142 10.4 5.425 10.77C5.721 11.157 6.177 11.616 6.859 12.298L7.031 12.47C7.1026 12.5392 7.1597 12.622 7.19896 12.7135C7.23822 12.805 7.25886 12.9035 7.25968 13.0031C7.2605 13.1026 7.24148 13.2014 7.20372 13.2935C7.16597 13.3857 7.11024 13.4694 7.03979 13.5398C6.96934 13.6102 6.88557 13.6658 6.79338 13.7035C6.70119 13.7412 6.60242 13.7601 6.50284 13.7592C6.40326 13.7583 6.30485 13.7375 6.21337 13.6982C6.12188 13.6588 6.03915 13.6017 5.97 13.53L5.762 13.322C5.126 12.687 4.596 12.157 4.232 11.68C3.848 11.176 3.579 10.644 3.579 10C3.579 9.356 3.849 8.824 4.232 8.32C4.596 7.843 5.126 7.313 5.762 6.678L5.97 6.47Z" fill="var(--fill-0, #A872FF)"/>
</svg>
