<svg preserveAspectRatio="none" width="100%" height="100%" overflow="visible" style="display: block;" viewBox="0 0 17 17" fill="none" xmlns="http://www.w3.org/2000/svg">
<path id="Vector" fill-rule="evenodd" clip-rule="evenodd" d="M8.809 14.377L14.656 8.547C15.498 7.708 15.919 7.288 16.14 6.755C16.361 6.222 16.362 5.627 16.362 4.44V3.873C16.362 2.047 16.362 1.134 15.793 0.567C15.224 -5.96046e-08 14.309 0 12.478 0H11.908C10.718 0 10.123 -4.47035e-08 9.588 0.221C9.052 0.442 8.631 0.862 7.788 1.701L1.942 7.531C0.958 8.511 0.348 9.12 0.112 9.707C0.0388972 9.88539 0.000870032 10.0762 0 10.269C0 11.071 0.647 11.717 1.942 13.008L2.116 13.181L4.154 11.112C4.22314 11.0418 4.30543 10.9859 4.39617 10.9475C4.48691 10.9091 4.58432 10.889 4.68284 10.8883C4.78137 10.8875 4.87907 10.9062 4.97038 10.9432C5.06169 10.9802 5.14481 11.0349 5.215 11.104C5.28519 11.1731 5.34108 11.2554 5.37947 11.3462C5.41786 11.4369 5.438 11.5343 5.43874 11.6328C5.43948 11.7314 5.42081 11.8291 5.3838 11.9204C5.34678 12.0117 5.29214 12.0948 5.223 12.165L3.178 14.24L3.315 14.377C4.61 15.667 5.258 16.313 6.062 16.313C6.24 16.313 6.41 16.282 6.581 16.219C7.184 15.997 7.8 15.383 8.809 14.377ZM11.556 7.531C11.1913 7.8944 10.6974 8.09844 10.1825 8.09844C9.66763 8.09844 9.17374 7.8944 8.809 7.531C8.6285 7.35163 8.48525 7.13833 8.3875 6.90338C8.28974 6.66843 8.23942 6.41647 8.23942 6.162C8.23942 5.90753 8.28974 5.65557 8.3875 5.42062C8.48525 5.18567 8.6285 4.97237 8.809 4.793C9.17374 4.4296 9.66763 4.22555 10.1825 4.22555C10.6974 4.22555 11.1913 4.4296 11.556 4.793C11.7365 4.97237 11.8798 5.18567 11.9775 5.42062C12.0753 5.65557 12.1256 5.90753 12.1256 6.162C12.1256 6.41647 12.0753 6.66843 11.9775 6.90338C11.8798 7.13833 11.7365 7.35163 11.556 7.531Z" fill="var(--fill-0, #CAAE93)"/>
</svg>
