<svg preserveAspectRatio="none" width="100%" height="100%" overflow="visible" style="display: block;" viewBox="0 0 16 20" fill="none" xmlns="http://www.w3.org/2000/svg">
<path id="Vector" d="M7.25 0C7.00428 0.0551143 6.76523 0.136586 6.537 0.243C2.553 2.105 0 7.312 0 11.773C0 16.013 3.183 19.497 7.25 19.882V0ZM8.75 19.882C12.817 19.497 16 16.014 16 11.774C16 11.3673 15.979 10.956 15.937 10.54L8.75 17.728V19.882ZM14.26 5.097C13.8763 4.37765 13.4278 3.69482 12.92 3.057L8.75 7.227V10.607L14.26 5.097ZM11.908 1.947C11.191 1.24989 10.3652 0.674344 9.463 0.243C9.23477 0.136586 8.99572 0.0551143 8.75 0V5.106L11.908 1.947ZM14.936 6.541L8.75 12.728V15.606L15.5 8.856L15.632 8.724C15.456 7.97965 15.2233 7.24986 14.936 6.541Z" fill="var(--fill-0, #CAAE93)"/>
</svg>
