<svg preserveAspectRatio="none" width="100%" height="100%" overflow="visible" style="display: block;" viewBox="0 0 20 20" fill="none" xmlns="http://www.w3.org/2000/svg">
<path id="Subtract" fill-rule="evenodd" clip-rule="evenodd" d="M10 0C15.523 0 20 4.477 20 10C20 15.523 15.523 20 10 20C4.477 20 0 15.523 0 10C0 4.477 4.477 0 10 0ZM11.001 6.25098C10.8023 6.25098 10.6113 6.32938 10.4707 6.46973C10.3303 6.61035 10.251 6.80125 10.251 7C10.251 7.19875 10.3303 7.38965 10.4707 7.53027L12.1904 9.25H6.00098C5.80214 9.25 5.61134 9.32918 5.4707 9.46973C5.33005 9.61038 5.25098 9.80109 5.25098 10C5.25098 10.1989 5.33005 10.3896 5.4707 10.5303C5.61134 10.6708 5.80214 10.75 6.00098 10.75H12.1904L10.4707 12.4697C10.397 12.5384 10.3379 12.6219 10.2969 12.7139C10.256 12.8058 10.2342 12.9053 10.2324 13.0059C10.2307 13.1064 10.2485 13.2065 10.2861 13.2998C10.3238 13.393 10.3801 13.4777 10.4512 13.5488C10.5224 13.62 10.6078 13.6761 10.7012 13.7139C10.7945 13.7516 10.8944 13.7703 10.9951 13.7686C11.0958 13.7668 11.1952 13.745 11.2871 13.7041C11.379 13.6632 11.4617 13.6038 11.5303 13.5303L14.5303 10.5303C14.6707 10.3896 14.75 10.1988 14.75 10C14.75 9.80125 14.6707 9.61035 14.5303 9.46973L11.5303 6.46973C11.3898 6.32956 11.1995 6.25106 11.001 6.25098Z" fill="var(--fill-0, #1E1E1E)"/>
</svg>
