<svg preserveAspectRatio="none" width="100%" height="100%" overflow="visible" style="display: block;" viewBox="0 0 22 22" fill="none" xmlns="http://www.w3.org/2000/svg">
<path id="Vector" fill-rule="evenodd" clip-rule="evenodd" d="M10.693 0.00100005H10.807C13.116 0.00100005 14.925 0.00100011 16.337 0.191C17.781 0.385 18.921 0.791 19.816 1.685C20.711 2.58 21.116 3.72 21.31 5.165C21.5 6.576 21.5 8.385 21.5 10.694V10.782C21.5 12.691 21.5 14.253 21.396 15.525C21.292 16.805 21.079 17.872 20.601 18.76C20.3917 19.1507 20.13 19.503 19.816 19.817C18.921 20.712 17.781 21.117 16.336 21.311C14.925 21.501 13.116 21.501 10.807 21.501H10.693C8.384 21.501 6.575 21.501 5.163 21.311C3.719 21.117 2.579 20.711 1.684 19.817C0.891 19.024 0.481 18.037 0.264 16.811C0.0490001 15.608 0.00999997 14.111 0.00199997 12.253C0.000666641 11.7797 0 11.279 0 10.751V10.693C0 8.384 5.96046e-08 6.575 0.19 5.163C0.384 3.719 0.79 2.579 1.684 1.684C2.579 0.789 3.719 0.384 5.164 0.19C6.575 5.96046e-08 8.384 0 10.693 0M5.363 1.676C4.085 1.848 3.314 2.176 2.745 2.745C2.175 3.315 1.848 4.085 1.676 5.364C1.502 6.664 1.5 8.372 1.5 10.75V11.594L2.501 10.718C2.94007 10.3337 3.50882 10.1306 4.09203 10.1499C4.67524 10.1692 5.22931 10.4094 5.642 10.822L9.932 15.112C10.2649 15.4448 10.7046 15.6496 11.1735 15.6902C11.6425 15.7308 12.1108 15.6047 12.496 15.334L12.794 15.124C13.3497 14.7335 14.0214 14.5432 14.6993 14.584C15.3773 14.6249 16.0213 14.8946 16.526 15.349L19.356 17.896C19.642 17.298 19.811 16.512 19.901 15.403C19.999 14.198 20 12.696 20 10.75C20 8.372 19.998 6.664 19.824 5.364C19.652 4.085 19.324 3.314 18.755 2.744C18.185 2.175 17.415 1.848 16.136 1.676C14.836 1.502 13.128 1.5 10.75 1.5C8.372 1.5 6.663 1.502 5.363 1.676Z" fill="var(--fill-0, #FF5634)"/>
</svg>
