<svg preserveAspectRatio="none" width="100%" height="100%" overflow="visible" style="display: block;" viewBox="0 0 16 16" fill="none" xmlns="http://www.w3.org/2000/svg">
<path id="Vector" d="M7.52053 12.9281L13.4371 7.01153C12.4418 6.59572 11.5378 5.98852 10.7764 5.22439C10.0119 4.46285 9.40443 3.55857 8.98847 2.56288L3.07189 8.47947C2.6103 8.94106 2.37911 9.17225 2.18072 9.42664C1.94664 9.72701 1.74575 10.0518 1.58154 10.3954C1.44314 10.6866 1.33995 10.997 1.13356 11.6162L0.0439948 14.8824C-0.00615239 15.032 -0.0135925 15.1926 0.0225107 15.3461C0.0586138 15.4997 0.136829 15.6401 0.248365 15.7516C0.3599 15.8632 0.500335 15.9414 0.653883 15.9775C0.807431 16.0136 0.968005 16.0062 1.11756 15.956L4.38384 14.8664C5.00382 14.6601 5.31341 14.5569 5.6046 14.4185C5.94965 14.2542 6.27257 14.0545 6.57336 13.8193C6.82775 13.6209 7.05894 13.3897 7.52053 12.9281ZM15.0787 5.36998C15.6686 4.78006 16 3.97995 16 3.14566C16 2.31138 15.6686 1.51127 15.0787 0.921344C14.4887 0.331417 13.6886 6.21588e-09 12.8543 0C12.0201 -6.21588e-09 11.2199 0.331417 10.63 0.921344L9.92044 1.63092L9.95084 1.71972C10.3004 2.7203 10.8727 3.62844 11.6244 4.37562C12.3939 5.14985 13.3338 5.73337 14.3691 6.07956L15.0787 5.36998Z" fill="var(--fill-0, #1E1E1E)" fill-opacity="0.4"/>
</svg>
