<svg preserveAspectRatio="none" width="100%" height="100%" overflow="visible" style="display: block;" viewBox="0 0 20 19" fill="none" xmlns="http://www.w3.org/2000/svg">
<path id="Vector" d="M5.56975 13.3762C7.15575 10.1482 7.94975 8.53415 9.08975 8.14915C9.68011 7.95024 10.3194 7.95024 10.9098 8.14915C12.0498 8.53415 12.8438 10.1482 14.4298 13.3762L15.3078 15.1662C15.7178 15.9992 15.9218 16.4162 15.9708 16.7002C16.1718 17.8792 15.3008 18.9652 14.1248 19.0002C13.8418 19.0082 13.3998 18.8872 12.5148 18.6442C12.1808 18.5475 11.844 18.4611 11.5048 18.3852C10.5115 18.1845 9.48805 18.1845 8.49475 18.3852C8.24275 18.4362 7.98975 18.5052 7.48475 18.6452C6.59975 18.8872 6.15775 19.0082 5.87475 19.0002C4.69975 18.9652 3.82775 17.8792 4.02875 16.7002C4.07675 16.4162 4.28175 16.0002 4.69175 15.1652L5.56975 13.3762ZM4.14475 3.52715C4.55675 5.15815 5.72075 6.24415 6.74475 5.95315C7.76975 5.66115 8.26675 4.10315 7.85475 2.47315C7.44275 0.842155 6.27875 -0.243846 5.25475 0.0471543C4.22975 0.339154 3.73275 1.89715 4.14475 3.52715ZM15.8548 3.52715C15.4428 5.15815 14.2788 6.24415 13.2548 5.95315C12.2298 5.66115 11.7328 4.10315 12.1448 2.47315C12.5568 0.842155 13.7208 -0.243846 14.7448 0.0471543C15.7698 0.339154 16.2668 1.89715 15.8548 3.52715ZM0.201753 10.2972C0.651753 11.5022 1.70975 12.2342 2.56475 11.9322C3.41975 11.6302 3.74775 10.4082 3.29775 9.20215C2.84775 7.99815 1.78975 7.26615 0.934753 7.56815C0.0797528 7.87015 -0.248247 9.09215 0.201753 10.2982M19.7978 10.2972C19.3478 11.5022 18.2898 12.2342 17.4348 11.9322C16.5798 11.6302 16.2518 10.4082 16.7018 9.20215C17.1518 7.99815 18.2098 7.26615 19.0648 7.56815C19.9198 7.87015 20.2478 9.09215 19.7978 10.2982" fill="var(--fill-0, #3C77FF)"/>
</svg>
