<svg preserveAspectRatio="none" width="100%" height="100%" overflow="visible" style="display: block;" viewBox="0 0 21 22" fill="none" xmlns="http://www.w3.org/2000/svg">
<path id="Vector" d="M10.75 0C10.9489 0 11.1397 0.0790177 11.2803 0.21967C11.421 0.360322 11.5 0.551088 11.5 0.75V1.001C12.431 1.00976 13.3254 1.36453 14.0093 1.99629C14.6932 2.62805 15.1176 3.49162 15.2 4.419C15.214 4.585 15.214 4.773 15.214 5.048V6.27C15.214 10.14 12.27 13.32 8.5 13.697V15.75C8.5 16.8772 8.94777 17.9582 9.7448 18.7552C10.5418 19.5522 11.6228 20 12.75 20H13.632C14.2962 19.9999 14.9455 19.8036 15.4985 19.4357C16.0515 19.0677 16.4834 18.5446 16.74 17.932C16.78 17.8373 16.8083 17.7283 16.825 17.605C16.1457 17.3842 15.5674 16.9283 15.1942 16.3194C14.8209 15.7104 14.677 14.9882 14.7885 14.2827C14.9 13.5772 15.2594 12.9345 15.8023 12.4703C16.3451 12.006 17.0357 11.7506 17.75 11.75C18.4962 11.7492 19.2159 12.0265 19.7686 12.5278C20.3214 13.0291 20.6674 13.7185 20.7393 14.4612C20.8111 15.2039 20.6036 15.9468 20.1571 16.5447C19.7107 17.1427 19.0575 17.5528 18.325 17.695C18.2981 17.9757 18.2304 18.2509 18.124 18.512C17.7531 19.3973 17.1288 20.1532 16.3296 20.6849C15.5304 21.2165 14.5919 21.5001 13.632 21.5H12.75C11.225 21.5 9.76247 20.8942 8.68414 19.8159C7.6058 18.7375 7 17.275 7 15.75V13.7C5.08322 13.5136 3.30449 12.6203 2.01042 11.194C0.71635 9.76779 -0.000341724 7.91082 1.22234e-07 5.985V5.048C1.22234e-07 4.773 1.08033e-07 4.585 0.0150001 4.42C0.0925727 3.54302 0.476228 2.7213 1.09876 2.09876C1.7213 1.47623 2.54303 1.09257 3.42 1.015C3.61304 1.00199 3.80654 0.996982 4 1V0.75C4 0.551088 4.07902 0.360322 4.21967 0.21967C4.36032 0.0790177 4.55109 0 4.75 0C4.94891 0 5.13968 0.0790177 5.28033 0.21967C5.42098 0.360322 5.5 0.551088 5.5 0.75V2.75C5.5 2.94891 5.42098 3.13968 5.28033 3.28033C5.13968 3.42098 4.94891 3.5 4.75 3.5C4.55109 3.5 4.36032 3.42098 4.21967 3.28033C4.07902 3.13968 4 2.94891 4 2.75V2.5C3.737 2.5 3.634 2.501 3.552 2.509C3.02582 2.55554 2.53278 2.78574 2.15926 3.15926C1.78574 3.53278 1.55554 4.02581 1.509 4.552C1.501 4.642 1.5 4.758 1.5 5.087V5.985C1.5 7.6426 2.15848 9.23231 3.33058 10.4044C4.50269 11.5765 6.0924 12.235 7.75 12.235C8.5332 12.235 9.30874 12.0807 10.0323 11.781C10.7559 11.4813 11.4134 11.042 11.9672 10.4882C12.521 9.93438 12.9603 9.27691 13.26 8.55332C13.5597 7.82974 13.714 7.0542 13.714 6.271V5.087C13.714 4.758 13.714 4.642 13.706 4.552C13.6566 3.99809 13.4039 3.48208 12.9965 3.10353C12.5892 2.72497 12.056 2.51068 11.5 2.502V2.75C11.5 2.94891 11.421 3.13968 11.2803 3.28033C11.1397 3.42098 10.9489 3.5 10.75 3.5C10.5511 3.5 10.3603 3.42098 10.2197 3.28033C10.079 3.13968 10 2.94891 10 2.75V0.75C10 0.551088 10.079 0.360322 10.2197 0.21967C10.3603 0.0790177 10.5511 0 10.75 0Z" fill="var(--fill-0, #FEC855)"/>
</svg>
