<svg preserveAspectRatio="none" width="100%" height="100%" overflow="visible" style="display: block;" viewBox="0 0 15 15" fill="none" xmlns="http://www.w3.org/2000/svg">
<path id="Vector" d="M13.739 7.13566L12.893 10.4327C12.463 12.1087 11.587 13.2877 10.557 14.1177C10.776 12.9737 10.771 11.6997 10.413 10.3037L9.549 6.93366L9.399 6.34966C9.58774 6.26684 9.79918 6.2513 9.998 6.30566C10.376 6.40666 10.606 6.71166 10.635 7.00766C10.6542 7.20564 10.7513 7.38788 10.9049 7.51428C11.0585 7.64068 11.256 7.70089 11.454 7.68166C11.652 7.66243 11.8342 7.56534 11.9606 7.41175C12.087 7.25816 12.1472 7.06064 12.128 6.86266C12.037 5.92066 11.345 5.11366 10.386 4.85666C9.9191 4.73003 9.42483 4.74746 8.968 4.90666L8.951 4.86266C8.727 4.26666 8.399 3.63366 7.78 3.16966C7.4405 2.9154 7.05761 2.72497 6.65 2.60766C5.891 2.39266 5.187 2.53166 4.586 2.73166C4.028 2.91666 3.376 3.22166 2.662 3.55666L2.59 3.59066C1.405 4.14566 0.931001 4.36366 0.446001 4.51866C0.299334 4.56533 0.150667 4.60766 0 4.64566L0.327 3.37866C0.767 1.65966 0.988 0.80066 1.563 0.36866C1.756 0.22366 1.973 0.11666 2.201 0.0516601C2.885 -0.14234 3.662 0.22166 5.216 0.94866C6.366 1.48866 6.942 1.75766 7.542 1.94866C7.75133 2.01466 7.962 2.07333 8.174 2.12466C8.786 2.27366 9.413 2.34066 10.667 2.47566C12.361 2.65766 13.207 2.74866 13.707 3.27366C13.874 3.45066 14.01 3.65666 14.107 3.88266C14.399 4.55766 14.179 5.41666 13.739 7.13566Z" fill="var(--fill-0, #FF6CF1)"/>
</svg>
