<svg preserveAspectRatio="none" width="100%" height="100%" overflow="visible" style="display: block;" viewBox="0 0 20 16" fill="none" xmlns="http://www.w3.org/2000/svg">
<path id="Vector" fill-rule="evenodd" clip-rule="evenodd" d="M7.99616 0H12.0042C15.7822 0 17.6712 -1.19209e-07 18.8442 1.172C19.7242 2.049 19.9442 3.326 20.0002 5.494C20.0072 5.772 19.7792 5.994 19.5102 6.065C19.0818 6.17654 18.7026 6.427 18.4319 6.77716C18.1612 7.12732 18.0143 7.55739 18.0142 8C18.0142 8.929 18.6482 9.71 19.5082 9.935C19.7782 10.005 20.0062 10.227 19.9982 10.505C19.9432 12.675 19.7222 13.951 18.8442 14.828C17.6702 16 15.7822 16 12.0042 16H7.99616C4.21816 16 2.32916 16 1.15616 14.828C0.276157 13.951 0.056157 12.674 0.00015703 10.506C-0.00684297 10.227 0.221157 10.006 0.490157 9.935C0.918479 9.82346 1.2977 9.573 1.56842 9.22284C1.83914 8.87268 1.98606 8.44261 1.98616 8C1.98616 7.071 1.35216 6.29 0.492157 6.065C0.222157 5.995 -0.00584288 5.772 0.00215712 5.495C0.0571571 3.325 0.278157 2.049 1.15616 1.172C2.33016 -1.19209e-07 4.21816 0 7.99616 0ZM10.9542 6.199L10.8562 6.023C10.4752 5.34 10.2852 5 10.0002 5C9.71516 5 9.52516 5.34 9.14416 6.023L9.04616 6.199C8.93816 6.393 8.88416 6.489 8.79916 6.553C8.71416 6.617 8.60916 6.641 8.39916 6.688L8.20916 6.732C7.46916 6.899 7.09916 6.982 7.01216 7.264C6.92416 7.547 7.17616 7.841 7.68016 8.429L7.81016 8.581C7.95316 8.748 8.02516 8.831 8.05716 8.935C8.08916 9.039 8.07916 9.15 8.05716 9.373L8.03716 9.576C7.96116 10.361 7.92316 10.754 8.15316 10.928C8.38316 11.102 8.72916 10.943 9.42216 10.625L9.60116 10.543C9.79716 10.453 9.89616 10.408 10.0002 10.408C10.1042 10.408 10.2032 10.453 10.4002 10.543L10.5782 10.625C11.2712 10.944 11.6172 11.102 11.8472 10.928C12.0772 10.754 12.0392 10.361 11.9632 9.576L11.9432 9.373C11.9212 9.15 11.9112 9.039 11.9432 8.935C11.9752 8.831 12.0472 8.748 12.1902 8.581L12.3202 8.429C12.8242 7.841 13.0762 7.547 12.9882 7.264C12.9002 6.982 12.5312 6.899 11.7912 6.732L11.6012 6.688C11.3912 6.641 11.2852 6.618 11.2012 6.553C11.1162 6.489 11.0622 6.393 10.9542 6.199Z" fill="var(--fill-0, #1E1E1E)"/>
</svg>
