<svg preserveAspectRatio="none" width="100%" height="100%" overflow="visible" style="display: block;" viewBox="0 0 18 20" fill="none" xmlns="http://www.w3.org/2000/svg">
<path id="Vector" d="M7.09 9.96264L16.364 6.63064V12.1706C15.7826 11.8383 15.1237 11.6654 14.454 11.6696C12.496 11.6696 10.909 13.0956 10.909 14.8546C10.909 16.6136 12.496 18.0396 14.454 18.0396C16.413 18.0396 18 16.6136 18 14.8546V5.49164C18 4.37164 18 3.43264 17.912 2.68464C17.9 2.581 17.8856 2.47764 17.869 2.37464C17.785 1.86464 17.635 1.38664 17.347 0.988644C17.1674 0.737862 16.9371 0.527647 16.671 0.371644L16.662 0.366644C15.891 -0.0943556 15.023 -0.0613558 14.13 0.142644C13.266 0.340644 12.194 0.742644 10.88 1.23764L8.596 2.09664C7.981 2.32764 7.459 2.52364 7.049 2.72664C6.614 2.94264 6.239 3.19764 5.957 3.57764C5.676 3.95764 5.559 4.36764 5.505 4.81164C5.455 5.22964 5.455 5.73764 5.455 6.33664V14.1306C4.8736 13.7983 4.21469 13.6254 3.545 13.6296C1.587 13.6296 0 15.0556 0 16.8146C0 18.5736 1.587 19.9996 3.545 19.9996C5.504 19.9996 7.091 18.5736 7.091 16.8146L7.09 9.96264Z" fill="var(--fill-0, #FF5634)"/>
</svg>
